<svg width="70" height="98" viewBox="0 0 70 98" fill="none" xmlns="http://www.w3.org/2000/svg">
    <path d="M42.1714 89.7413H27.5104L27.9455 89.1063C29.4059 86.9784 30.9995 84.392 31.0321 83.9243C31.0074 83.4364 29.4286 79.9942 27.9179 76.9531L28.6214 76.5872C29.3724 78.0982 31.8224 83.0886 31.8224 83.9263C31.8224 84.6601 30.1085 87.3232 29.024 88.9329H40.8541C40.1081 87.4885 38.5441 84.3516 38.5441 83.4566C38.5441 82.4012 41.0386 77.5438 41.5379 76.5801L42.2345 76.9581C41.0307 79.2795 39.3325 82.8316 39.3325 83.4566C39.3325 84.0815 40.8077 87.1589 41.8566 89.1436L42.1714 89.7393V89.7413Z" fill="#707070"/>
    <path d="M35.2197 83.8809C31.5234 83.8809 34.3652 80.8832 34.3652 80.8832C34.3652 80.8832 34.2912 81.8892 35.3125 81.8126C36.3338 81.737 35.9628 80.1615 35.9628 80.1615C35.9628 80.1615 37.2633 81.0032 37.2633 82.0968C37.2633 83.1905 36.395 83.8799 35.2197 83.8799V83.8809Z" fill="url(#paint0_linear_13_3219)"/>
    <path d="M34.9425 6.10352e-05C15.7099 6.10352e-05 0.118408 12.2833 0.118408 27.4352C0.118408 39.9049 17.636 69.1442 28.8296 79.1101C30.3315 79.8762 32.7026 80.1715 34.9415 80.1715C37.1804 80.1715 39.7114 80.1715 41.7293 79.1101C53.5219 69.1442 69.7646 39.9049 69.7646 27.4352C69.7656 12.2833 54.1751 6.10352e-05 34.9425 6.10352e-05Z" fill="url(#paint1_linear_13_3219)"/>
    <path opacity="0.2" d="M34.9425 6.10352e-05C23.2042 6.10352e-05 12.8316 4.58031 6.52234 11.5898C12.9016 5.92596 22.2056 2.35167 32.5743 2.35167C51.8069 2.35167 67.3984 14.6349 67.3984 29.7858C67.3984 41.0892 54.0527 66.1707 42.7723 78.1868C54.4553 67.4508 69.7666 39.541 69.7666 27.4332C69.7656 12.2833 54.1751 6.10352e-05 34.9425 6.10352e-05Z" fill="white"/>
    <path d="M52.5805 54.9599C52.5805 54.9599 47.778 59.1258 44.8178 58.01C41.8576 56.8942 42.3835 52.7423 42.3835 52.7423C42.3835 52.7423 39.6868 56.5051 34.0949 56.7742C28.503 57.0433 26.4644 52.7423 26.4644 52.7423C26.4644 52.7423 25.5438 57.6481 21.956 57.9858C18.3682 58.3235 16.7924 54.3188 16.7924 54.3188C16.7924 54.3188 16.9769 59.5139 14.3828 60.9765C19.2257 68.5131 24.4998 75.2555 28.8296 79.111C30.3315 79.877 32.7026 80.1724 34.9415 80.1724C37.1804 80.1724 39.7114 80.1724 41.7303 79.111C46.4706 75.1043 51.9293 67.9819 56.7633 60.0884C53.7597 58.0543 52.5805 54.9609 52.5805 54.9609V54.9599Z" fill="url(#paint2_linear_13_3219)"/>
    <g style="mix-blend-mode:multiply" opacity="0.4">
    <path d="M34.8626 80.1684C33.6686 75.7756 31.2807 67.0002 28.2406 55.9003C23.8239 39.7727 17.6143 6.43488 33.2552 0.204577L34.2992 0.0130615C33.3765 0.0261652 32.4618 0.0624524 31.559 0.130995C24.1594 3.34039 19.0125 12.0816 21.8751 32.5153C24.7169 52.8008 31.6961 72.6973 34.5014 80.1553C34.6218 80.1573 34.7432 80.1674 34.8636 80.1674L34.8626 80.1684Z" fill="#A699A5"/>
    </g>
    <g style="mix-blend-mode:multiply" opacity="0.4">
    <path d="M17.2769 3.79407C16.2734 4.26076 15.3004 4.76475 14.365 5.30502C9.34741 9.75524 6.53322 17.6275 8.95567 32.5154C12.2169 52.557 25.6918 72.2276 31.4455 79.8913C31.5757 79.9135 31.704 79.9336 31.8372 79.9528C28.1754 74.3857 20.8637 62.5873 16.5546 50.9946C11.2775 36.7993 5.40834 13.0765 17.2779 3.79407H17.2769Z" fill="#A699A5"/>
    </g>
    <g style="mix-blend-mode:multiply" opacity="0.4">
    <path d="M52.5805 56.0435C52.5805 56.0435 47.778 60.2095 44.8178 59.0937C42.2247 58.1159 42.3066 54.8098 42.3668 54.0044C42.3638 53.954 42.3608 53.9056 42.3589 53.8582C42.2296 54.0346 39.5486 57.5958 34.0949 57.8579C28.503 58.127 26.4644 53.826 26.4644 53.826C26.4644 53.826 25.5438 58.7318 21.956 59.0695C18.3682 59.4072 16.7924 55.4025 16.7924 55.4025C16.7924 55.4025 16.9503 59.9182 14.8682 61.7134C15.5175 62.7113 16.1727 63.69 16.8338 64.6527C18.4471 63.0389 19.1487 60.5028 19.1487 60.5028C19.1487 60.5028 20.7995 62.8272 24.339 61.2245C27.8794 59.6219 27.7284 57.8579 27.7284 57.8579C27.7284 57.8579 29.3595 60.9826 35.0333 60.5794C40.7071 60.1762 41.6188 57.8579 41.6188 57.8579C41.6188 57.8579 41.752 61.4402 45.3043 61.6922C48.8566 61.9442 50.9198 59.3699 50.9198 59.3699C50.9198 59.3699 52.5776 61.6025 54.8964 63.049C55.372 62.3162 55.8387 61.5672 56.3045 60.8163C53.6541 58.7963 52.5805 56.0435 52.5805 56.0435Z" fill="#A699A5"/>
    </g>
    <g style="mix-blend-mode:multiply" opacity="0.3">
    <path d="M45.3043 59.9786C48.8566 60.2306 50.9198 57.6562 50.9198 57.6562C50.9198 57.6562 52.8094 60.2276 55.3888 61.6398C55.8506 60.9181 56.3124 60.1953 56.7633 59.4575C53.7597 57.4234 52.5805 54.3299 52.5805 54.3299C52.5805 54.3299 47.778 58.4959 44.8178 57.3801C41.8576 56.2642 42.3835 52.1124 42.3835 52.1124C42.3835 52.1124 39.6868 55.8751 34.0949 56.1443C28.503 56.4134 26.4644 52.1124 26.4644 52.1124C26.4644 52.1124 25.5438 57.0182 21.956 57.3559C18.3682 57.6935 16.7924 53.6888 16.7924 53.6888C16.7924 53.6888 16.9769 58.884 14.3828 60.3465C15.0419 61.3716 15.7089 62.3776 16.3799 63.3674C18.3258 61.8242 19.1487 58.7902 19.1487 58.7902C19.1487 58.7902 20.7995 61.1146 24.339 59.5119C27.8794 57.9092 27.7284 56.1453 27.7284 56.1453C27.7284 56.1453 29.3595 59.27 35.0333 58.8668C40.7071 58.4636 41.6188 56.1453 41.6188 56.1453C41.6188 56.1453 41.752 59.7276 45.3043 59.9796V59.9786Z" fill="#A699A5"/>
    </g>
    <path opacity="0.9" d="M52.5805 54.9599C52.5805 54.9599 47.778 59.1258 44.8178 58.01C41.8576 56.8942 42.3835 52.7423 42.3835 52.7423C42.3835 52.7423 39.6868 56.5051 34.0949 56.7742C28.503 57.0433 26.4644 52.7423 26.4644 52.7423C26.4644 52.7423 25.5438 57.6481 21.956 57.9858C18.3682 58.3235 16.7924 54.3188 16.7924 54.3188C16.7924 54.3188 16.9769 59.5139 14.3828 60.9765C15.0419 62.0016 15.7089 63.0075 16.3799 63.9974C18.3258 62.4542 19.1487 59.4191 19.1487 59.4191C19.1487 59.4191 20.7995 61.7435 24.339 60.1409C27.8794 58.5382 27.7284 56.7742 27.7284 56.7742C27.7284 56.7742 29.3595 59.8989 35.0333 59.4958C40.7071 59.0926 41.6188 56.7742 41.6188 56.7742C41.6188 56.7742 41.752 60.3566 45.3043 60.6086C48.8566 60.8606 50.9198 58.2862 50.9198 58.2862C50.9198 58.2862 52.8094 60.8575 55.3888 62.2697C55.8506 61.547 56.3124 60.8253 56.7633 60.0874C53.7597 58.0533 52.5805 54.9599 52.5805 54.9599Z" fill="#E75CFF"/>
    <g style="mix-blend-mode:multiply" opacity="0.4">
    <path d="M36.2125 80.1614C36.3003 80.1604 36.3871 80.1594 36.476 80.1574C38.709 72.6994 44.3265 52.8029 47.1683 32.5154C50.0496 11.9506 44.8179 3.23063 37.3423 0.0726354C36.548 0.0303003 35.7497 6.10352e-05 34.9426 6.10352e-05C34.8616 6.10352e-05 34.7817 0.00409294 34.7008 0.00510092L35.7882 0.20468C51.429 6.43499 44.0926 37.9302 41.2952 54.456C39.1125 66.5205 37.1904 75.6659 36.2115 80.1614H36.2125Z" fill="#A699A5"/>
    </g>
    <g style="mix-blend-mode:multiply" opacity="0.2">
    <path d="M37.068 80.1614C37.1558 80.1604 37.2426 80.1594 37.3314 80.1574C39.5644 72.6994 45.1819 52.8029 48.0238 32.5154C50.905 11.9506 45.6733 3.23063 38.1978 0.0726354C37.4035 0.0303003 36.6052 6.10352e-05 35.798 6.10352e-05C35.7171 6.10352e-05 35.6372 0.00409294 35.5563 0.00510092L36.6437 0.20468C52.2845 6.43499 44.9481 37.9302 42.1507 54.456C39.968 66.5205 38.0458 75.6659 37.067 80.1614H37.068Z" fill="#A699A5"/>
    </g>
    <g style="mix-blend-mode:multiply" opacity="0.4">
    <path d="M38.9388 79.9598C39.1055 79.9346 39.2713 79.9074 39.4361 79.8751C44.7852 72.2004 57.3119 52.5428 60.5701 32.5153C63.1179 16.8584 59.8656 8.97605 54.3576 4.65788C53.5189 4.21336 52.6535 3.80009 51.7654 3.41302C64.2911 12.4183 58.3214 36.6067 52.9722 50.9956C48.6612 62.5924 42.1575 74.3968 38.9388 79.9608V79.9598Z" fill="#A699A5"/>
    </g>
    <g style="mix-blend-mode:multiply" opacity="0.1">
    <path d="M39.7312 79.9598C39.898 79.9346 40.0637 79.9074 40.2285 79.8751C45.5776 72.2004 58.1034 52.5428 61.3626 32.5153C63.9103 16.8584 60.658 8.97605 55.15 4.65788C54.3113 4.21336 53.4459 3.80009 52.5579 3.41302C65.0836 12.4183 59.1138 36.6067 53.7646 50.9956C49.4536 62.5924 42.95 74.3968 39.7312 79.9608V79.9598Z" fill="#A699A5"/>
    </g>
    <g style="mix-blend-mode:multiply" opacity="0.4">
    <path d="M52.9722 50.9947C50.8043 56.8268 48.0819 62.7094 45.5016 67.8259C50.9257 58.3156 56.933 45.5042 59.0466 32.5144C61.1306 19.7111 59.3318 12.111 55.5969 7.40271C62.8219 18.2495 57.6592 38.3849 52.9722 50.9947Z" fill="#A699A5"/>
    </g>
    <g style="mix-blend-mode:multiply" opacity="0.4">
    <path d="M31.8372 79.9528C28.1754 74.3857 20.8637 62.5873 16.5546 50.9946C11.2775 36.7993 5.40834 13.0765 17.2779 3.79407C16.525 4.14384 15.8096 4.53594 15.0942 4.92703C12.8385 7.06092 8.77313 12.5967 9.3405 24.5654C10.119 40.9985 17.3982 57.0757 22.924 66.4116C26.7387 72.8576 29.9831 77.5991 31.6271 79.9195C31.6971 79.9306 31.7672 79.9427 31.8382 79.9528H31.8372Z" fill="#A699A5"/>
    </g>
    <g style="mix-blend-mode:multiply" opacity="0.3">
    <path d="M33.2552 0.204577L34.2992 0.0130615C33.6558 0.0221333 33.0223 0.0604364 32.3869 0.0957156C29.2914 1.66211 24.0341 5.58616 22.699 14.54C20.7749 27.4421 23.0937 39.5882 26.202 51.2304C28.7034 60.5995 33.0401 74.9219 34.6386 80.1603C34.7136 80.1633 34.7886 80.1674 34.8626 80.1684C33.6686 75.7756 31.2807 67.0002 28.2406 55.9003C23.8239 39.7727 17.6143 6.43488 33.2552 0.204577Z" fill="#A699A5"/>
    </g>
    <g style="mix-blend-mode:multiply" opacity="0.2">
    <path d="M36.5361 0.0484439C36.0063 0.0272764 35.4784 6.10352e-05 34.9426 6.10352e-05C34.8616 6.10352e-05 34.7817 0.00409294 34.7008 0.00510092L35.7882 0.20468C51.429 6.43499 44.0926 37.9302 41.2952 54.456C39.1125 66.5205 37.1904 75.6659 36.2115 80.1614C36.2628 80.1614 36.3141 80.1594 36.3645 80.1584C37.1558 76.8916 39.4263 67.3551 41.8902 55.463C44.9491 40.6961 47.8018 26.5875 46.1243 14.6933C44.8396 5.57518 39.1342 1.47171 36.5361 0.0484439Z" fill="#A699A5"/>
    </g>
    <path opacity="0.1" d="M36.693 1.60565C25.6158 1.60565 15.9132 6.23428 10.5256 13.1692C15.8471 9.66342 22.698 7.55171 30.1775 7.55171C47.111 7.55171 60.8376 18.3663 60.8376 31.7059C60.8376 40.9097 43.242 75.9308 43.6347 75.7232C54.0172 66.9488 67.353 36.7387 67.353 25.7598C67.353 12.4192 53.6255 1.60565 36.693 1.60565Z" fill="white"/>
    <path opacity="0.3" d="M35.8464 69.491C35.8464 69.491 27.4828 28.918 29.1257 15.7548C30.7696 2.59162 42.3984 0.0404305 44.6353 12.7359C46.8722 25.4304 35.8474 69.491 35.8474 69.491H35.8464Z" fill="url(#paint3_linear_13_3219)"/>
    <path opacity="0.3" d="M49.193 4.96428C43.5854 6.066 51.3639 8.99619 50.8705 26.1318C50.3771 43.2674 44.4567 66.4569 44.4567 66.4569C44.4567 66.4569 56.6784 48.4222 57.1294 27.7516C57.5803 7.08103 51.7586 4.46029 49.193 4.96428Z" fill="url(#paint4_linear_13_3219)"/>
    <path opacity="0.2" d="M63.5965 14.1671C60.0965 9.49921 64.0406 22.5031 62.9315 32.8853C61.8233 43.2674 49.7851 66.457 49.7851 66.457C49.7851 66.457 63.7731 45.0415 66.3999 30.698C69.0266 16.3545 64.5764 15.4755 63.5965 14.1682V14.1671Z" fill="url(#paint5_linear_13_3219)"/>
    <path opacity="0.2" d="M19.3707 5.83927C8.28072 7.69898 13.6703 28.6518 17.7159 42.8643C21.7616 57.0767 29.5569 73.0028 29.5569 73.0028C29.5569 73.0028 21.5317 49.2145 19.6736 32.3813C17.8146 15.5481 25.9829 4.73049 19.3717 5.83927H19.3707Z" fill="url(#paint6_linear_13_3219)"/>
    <path opacity="0.2" d="M6.52232 14.3386C-0.242785 16.8586 3.11214 35.8085 7.74983 45.0819C12.3875 54.3553 23.5377 71.9949 23.5377 71.9949C23.5377 71.9949 8.19978 43.7403 7.58011 36.247C6.96043 28.7527 8.44054 14.8426 5.77634 14.3386H6.52232Z" fill="url(#paint7_linear_13_3219)"/>
    <path style="mix-blend-mode:multiply" opacity="0.4" d="M43.7334 77.1275C41.7155 78.1889 39.1214 78.1889 36.9456 78.1889C34.7698 78.1889 32.3345 77.8936 30.8327 77.1275C19.6391 67.1606 2.1215 37.9223 2.1215 25.4516C2.1215 19.184 4.79557 13.4103 9.28524 8.79071C3.52563 13.6854 0 20.2343 0 27.4353C0 39.9049 17.5176 69.1443 28.7112 79.1102C30.2131 79.8763 32.5842 80.1716 34.8231 80.1716C37.062 80.1716 39.593 80.1716 41.6109 79.1102C42.3875 78.454 43.1848 77.7091 43.9939 76.8957C43.9071 76.9703 43.8192 77.0539 43.7324 77.1265L43.7334 77.1275Z" fill="url(#paint8_linear_13_3219)"/>
    <path opacity="0.2" d="M42.1743 78.4046C40.1565 79.466 37.5623 79.466 35.3865 79.466C33.2108 79.466 30.7755 79.1707 29.2747 78.4046C18.0801 68.4387 0.562442 39.1993 0.562442 26.7296C0.562442 22.5425 1.75739 18.5771 3.88579 15.027C1.48209 18.7545 0.118408 22.9679 0.118408 27.4352C0.118408 39.9049 17.636 69.1443 28.8296 79.1102C30.3315 79.8762 32.7026 80.1716 34.9415 80.1716C37.1804 80.1716 39.7114 80.1716 41.7303 79.1102C46.2377 75.3 51.3945 68.6716 56.0469 61.2428C51.5119 68.3843 46.5387 74.7164 42.1743 78.4046Z" fill="white"/>
    <g style="mix-blend-mode:multiply" opacity="0.1">
    <path d="M22.184 71.8939C24.5127 74.7939 26.7782 77.2836 28.8297 79.11C30.3315 79.8761 32.7026 80.1714 34.9416 80.1714C37.1805 80.1714 39.7115 80.1714 41.7303 79.11C43.9791 77.209 46.3917 74.5913 48.8201 71.5371C45.1119 72.2084 44.4557 70.2812 44.4557 70.2812C44.4557 70.2812 43.3703 71.9494 41.2528 71.2105C39.1352 70.4717 39.451 68.6745 39.451 68.6745C39.451 68.6745 38.2777 70.262 35.3175 70.4636C32.3573 70.6652 31.1732 68.6503 31.1732 68.6503C31.1732 68.6503 31.4297 70.2247 29.2056 71.0392C26.5947 71.9947 25.3258 70.3789 25.3258 70.3789C25.3258 70.3789 25.4402 71.8405 24.6222 72.2467C24.12 72.4957 22.7395 72.5814 22.183 71.8949L22.184 71.8939Z" fill="#A699A5"/>
    </g>
    <g style="mix-blend-mode:multiply" opacity="0.2">
    <path d="M14.7705 5.07812C14.6354 5.15372 14.4992 5.22831 14.365 5.30492C14.1074 5.4541 13.8548 5.60731 13.6022 5.76254C13.5608 5.78774 13.5194 5.81395 13.4769 5.84016C12.9737 6.15162 12.4813 6.47216 11.9998 6.80479C11.986 6.81487 11.9721 6.82394 11.9583 6.83301C10.864 7.59202 9.82992 8.40243 8.8639 9.26224C9.00797 9.10701 9.13723 8.94372 9.28524 8.7905C3.52563 13.6852 0 20.2341 0 27.435C0 39.9047 17.5176 69.1441 28.7112 79.11C30.2131 79.8761 32.5842 80.1714 34.8231 80.1714C34.8596 80.1714 34.8971 80.1714 34.9336 80.1714C34.9366 80.1714 34.9386 80.1714 34.9415 80.1714C35.352 80.1714 35.7793 80.1694 36.2115 80.1623C36.2539 80.1623 36.2963 80.1613 36.3378 80.1603C36.5805 80.1553 36.8252 80.1462 37.0719 80.1361C37.0699 80.1442 37.0679 80.1542 37.066 80.1633C37.1538 80.1623 37.2406 80.1613 37.3294 80.1593C37.3324 80.1492 37.3363 80.1351 37.3393 80.125C37.8731 80.0958 38.4079 80.0424 38.9368 79.9617C39.2378 79.9154 39.5338 79.8589 39.8279 79.7904C39.7963 79.8448 39.7598 79.9083 39.7292 79.9617C39.896 79.9365 40.0617 79.9093 40.2265 79.8771C40.2768 79.8045 40.338 79.7148 40.3893 79.6402C40.5798 79.5837 40.7534 79.492 40.938 79.4235C27.7117 59.65 11.6771 29.8471 14.7705 5.07812Z" fill="#A699A5"/>
    </g>
    <path d="M42.2345 88.4771H27.6229C26.9371 88.4771 27.76 97.3473 31.9655 97.3473H37.8919C42.0974 97.3473 42.9203 88.4771 42.2345 88.4771Z" fill="url(#paint9_linear_13_3219)"/>
    <path opacity="0.3" d="M38.3507 96.7405H32.4244C28.88 96.7405 27.7442 90.4588 27.8824 88.4771H27.6229C26.9371 88.4771 27.76 97.3473 31.9655 97.3473H37.8919C39.1125 97.3473 40.04 96.5903 40.7367 95.5299C40.1032 96.2557 39.3207 96.7405 38.3507 96.7405Z" fill="#FFA55C"/>
    <path style="mix-blend-mode:multiply" opacity="0.2" d="M39.8122 94.525H33.8858C31.2631 94.525 29.9556 91.0737 29.5106 88.4771H27.624C26.9382 88.4771 27.7611 97.3473 31.9666 97.3473H37.893C39.677 97.3473 40.8483 95.7466 41.5577 93.9081C41.0535 94.2841 40.4802 94.525 39.8132 94.525H39.8122Z" fill="url(#paint10_linear_13_3219)"/>
    <path style="mix-blend-mode:multiply" opacity="0.6" d="M27.5657 91.132H42.2938C42.353 90.758 42.3934 90.4103 42.4181 90.0908H27.4413C27.466 90.4103 27.5065 90.759 27.5657 91.132Z" fill="url(#paint11_linear_13_3219)"/>
    <path opacity="0.1" d="M42.4329 89.0658C42.4063 88.7069 42.3411 88.4771 42.2355 88.4771H27.6239C27.5173 88.4771 27.4522 88.7089 27.4255 89.0698C29.5845 89.0547 36.3733 89.0577 42.4329 89.0648V89.0658Z" fill="white"/>
    <path d="M39.8269 84.9029H31.1781C30.588 84.9029 30.1094 84.414 30.1094 83.8112C30.1094 83.2085 30.588 82.7196 31.1781 82.7196H39.8269C40.4169 82.7196 40.8955 83.2085 40.8955 83.8112C40.8955 84.414 40.4169 84.9029 39.8269 84.9029Z" fill="#707070"/>
    <g style="mix-blend-mode:multiply" opacity="0.4">
    <path d="M31.1771 84.903H39.8259C40.416 84.903 40.8945 84.4141 40.8945 83.8113H30.1075C30.1075 84.4141 30.5861 84.903 31.1761 84.903H31.1771Z" fill="#A699A5"/>
    </g>
    <defs>
    <linearGradient id="paint0_linear_13_3219" x1="35.2928" y1="80.5032" x2="35.2928" y2="86.7799" gradientUnits="userSpaceOnUse">
    <stop offset="0.01" stop-color="#FFD500"/>
    <stop offset="1" stop-color="#E32B00"/>
    </linearGradient>
    <linearGradient id="paint1_linear_13_3219" x1="-1.60839" y1="60.9948" x2="66.1437" y2="19.8176" gradientUnits="userSpaceOnUse">
    <stop stop-color="#8CFFFA"/>
    <stop offset="0.28" stop-color="#7673D1"/>
    <stop offset="1" stop-color="#8CFFFA"/>
    </linearGradient>
    <linearGradient id="paint2_linear_13_3219" x1="10.3016" y1="81.8013" x2="57.9215" y2="45.4893" gradientUnits="userSpaceOnUse">
    <stop stop-color="#4D1248"/>
    <stop offset="0.97" stop-color="#FF3CE2"/>
    </linearGradient>
    <linearGradient id="paint3_linear_13_3219" x1="29.5591" y1="38.3653" x2="48.0517" y2="34.8061" gradientUnits="userSpaceOnUse">
    <stop offset="0.08" stop-color="white"/>
    <stop offset="1" stop-color="white"/>
    </linearGradient>
    <linearGradient id="paint4_linear_13_3219" x1="38.5589" y1="37.3707" x2="59.0014" y2="33.4361" gradientUnits="userSpaceOnUse">
    <stop offset="0.08" stop-color="white"/>
    <stop offset="1" stop-color="white"/>
    </linearGradient>
    <linearGradient id="paint5_linear_13_3219" x1="44.7399" y1="42.1113" x2="69.261" y2="37.392" gradientUnits="userSpaceOnUse">
    <stop offset="0.08" stop-color="white"/>
    <stop offset="1" stop-color="white"/>
    </linearGradient>
    <linearGradient id="paint6_linear_13_3219" x1="-2.77375" y1="48.9" x2="28.1492" y2="38.5188" gradientUnits="userSpaceOnUse">
    <stop offset="0.08" stop-color="white"/>
    <stop offset="1" stop-color="white"/>
    </linearGradient>
    <linearGradient id="paint7_linear_13_3219" x1="-4.02595" y1="49.7116" x2="13.8602" y2="43.7069" gradientUnits="userSpaceOnUse">
    <stop offset="0.08" stop-color="white"/>
    <stop offset="1" stop-color="white"/>
    </linearGradient>
    <linearGradient id="paint8_linear_13_3219" x1="5.9915" y1="56.2896" x2="28.7931" y2="42.4326" gradientUnits="userSpaceOnUse">
    <stop stop-color="#8CFFFA"/>
    <stop offset="0.28" stop-color="#7673D1"/>
    <stop offset="1" stop-color="#8CFFFA"/>
    </linearGradient>
    <linearGradient id="paint9_linear_13_3219" x1="31.034" y1="95.6529" x2="41.6786" y2="83.9102" gradientUnits="userSpaceOnUse">
    <stop stop-color="#A84B20"/>
    <stop offset="0.81" stop-color="#E87F4E"/>
    </linearGradient>
    <linearGradient id="paint10_linear_13_3219" x1="31.6361" y1="94.9231" x2="40.6536" y2="85.1048" gradientUnits="userSpaceOnUse">
    <stop stop-color="#7A3414"/>
    <stop offset="1" stop-color="#E87F4E"/>
    </linearGradient>
    <linearGradient id="paint11_linear_13_3219" x1="34.9287" y1="89.8307" x2="34.9287" y2="91.1028" gradientUnits="userSpaceOnUse">
    <stop stop-color="#7A3414"/>
    <stop offset="1" stop-color="#E87F4E"/>
    </linearGradient>
    </defs>
    </svg>
    