<svg width="70" height="99" viewBox="0 0 70 99" fill="none" xmlns="http://www.w3.org/2000/svg">
    <path d="M43.172 89.3252H28.4158L28.7245 88.7322C28.7448 88.6946 30.704 84.8927 30.7364 82.281C30.7698 79.6936 27.2945 74.3361 27.2601 74.2823L27.9372 73.8386C28.0869 74.067 31.5824 79.4581 31.546 82.2912C31.5187 84.4795 30.3073 87.3004 29.7335 88.5138H42.0527C41.658 87.2791 40.7209 84.2327 40.5256 82.5349C40.2766 80.3659 42.1488 75.1272 42.2288 74.9048L42.9908 75.181C42.9716 75.2338 41.1024 80.4613 41.3301 82.4435C41.5639 84.4764 42.9797 88.7484 42.9939 88.7921L43.172 89.3272V89.3252Z" fill="#808080"/>
    <path d="M35.9989 89.7598V89.7131L35.6588 89.7365L35.3188 89.7131V89.7598L28.8834 90.1995C28.8834 90.1995 29.5149 98.2774 30.8811 98.2774H40.4365C41.8027 98.2774 42.4332 90.1995 42.4332 90.1995L35.9979 89.7598H35.9989Z" fill="url(#paint0_linear_13_2074)"/>
    <path opacity="0.2" d="M40.812 97.6559H31.2566C30.114 97.6559 29.4865 92.0161 29.3125 90.17L28.8844 90.1995C28.8844 90.1995 29.5159 98.2774 30.8821 98.2774H40.4375C40.7057 98.2774 40.9445 97.9596 41.157 97.4579C41.0477 97.5737 40.9334 97.657 40.812 97.657V97.6559Z" fill="white"/>
    <path style="mix-blend-mode:multiply" opacity="0.5" d="M35.9989 89.7131L35.6588 89.7365L35.3188 89.7131V89.7598L28.8834 90.1995C28.8834 90.1995 28.931 90.7976 29.0251 91.6577H42.2915C42.3857 90.7976 42.4332 90.1995 42.4332 90.1995L35.9979 89.7598V89.7131H35.9989Z" fill="url(#paint1_linear_13_2074)"/>
    <path style="mix-blend-mode:multiply" opacity="0.1" d="M31.7201 90.0056L28.8834 90.1995C28.8834 90.1995 29.5149 98.2774 30.8811 98.2774H40.4365C40.8859 98.2774 41.2532 97.398 41.5477 96.2262C35.4878 99.1862 29.2558 94.3791 31.7201 90.0066V90.0056Z" fill="url(#paint2_linear_13_2074)"/>
    <path d="M43.7286 88.1738H27.5891C26.6469 88.1738 27.2925 90.7399 28.4776 90.7399H42.8401C44.0251 90.7399 44.6708 88.1738 43.7286 88.1738Z" fill="url(#paint3_linear_13_2074)"/>
    <path opacity="0.1" d="M43.7282 88.1737H27.5887C27.3428 88.1737 27.2102 88.3514 27.1616 88.6083C27.1889 88.6032 27.2031 88.5799 27.2335 88.5799H43.373C44.0045 88.5799 43.9134 89.7233 43.4327 90.4838C44.2019 89.8492 44.4933 88.1727 43.7272 88.1727L43.7282 88.1737Z" fill="white"/>
    <path style="mix-blend-mode:multiply" opacity="0.3" d="M27.3542 89.7477C27.583 90.2767 27.9766 90.7398 28.4776 90.7398H42.84C43.3491 90.7398 43.7468 90.2625 43.9735 89.7213C40.1349 89.7405 30.6858 89.7822 27.3542 89.7477Z" fill="url(#paint4_linear_13_2074)"/>
    <path d="M35.418 0.00219727C16.3689 0.00219727 0.926636 11.952 0.926636 26.6923C0.926636 38.8239 18.2765 67.2697 29.3641 76.9652C30.8518 77.7105 33.2007 77.9979 35.418 77.9979C37.6353 77.9979 40.142 77.9979 42.1418 76.9652C53.8214 67.2697 69.9093 38.8239 69.9093 26.6923C69.9083 11.952 54.466 0.00219727 35.418 0.00219727Z" fill="#9E8BB9"/>
    <path d="M15.201 25.4128C16.6056 45.868 29.8468 71.1466 32.2341 77.7745C32.7938 77.8587 33.3878 77.8851 33.9768 77.9176C30.0806 65.3037 20.3025 14.0651 29.446 0.434753C29.3256 0.451001 29.2244 0.458109 29.1171 0.468263C27.2641 0.733296 25.4719 1.12221 23.7353 1.60658C19.1417 6.96003 14.4875 15.0318 15.201 25.4128Z" fill="url(#paint5_linear_13_2074)"/>
    <path opacity="0.2" d="M19.6104 3.01912C20.3522 2.72667 21.1041 2.44438 21.8752 2.19153C21.1051 2.44641 20.3501 2.72261 19.6104 3.01912Z" fill="#B9467A"/>
    <path opacity="0.2" d="M23.366 1.75892C23.3852 1.73861 23.4044 1.71526 23.4237 1.69495C23.0178 1.81172 22.6272 1.95084 22.2295 2.07879C22.6009 1.96099 22.9885 1.86757 23.366 1.75892Z" fill="#B9467A"/>
    <path opacity="0.2" d="M17.2271 4.06605C17.7756 3.80508 18.321 3.54004 18.8898 3.30243C18.3231 3.54208 17.7735 3.80305 17.2271 4.06605Z" fill="#B9467A"/>
    <path d="M6.09295 25.5143C5.48271 16.3327 9.47003 10.0602 13.5889 6.0827C5.87132 10.969 0.926636 18.3717 0.926636 26.6923C0.926636 38.8238 18.2765 67.2696 29.3641 76.9651C29.859 77.2129 30.4763 77.3886 31.1301 77.5368C24.8516 68.1907 7.0918 40.5471 6.09295 25.5143Z" fill="url(#paint6_linear_13_2074)"/>
    <g style="mix-blend-mode:multiply" opacity="0.1">
    <path d="M30.0968 76.4838C19.0102 66.7883 1.66034 38.3425 1.66034 26.2099C1.66034 18.1676 6.28725 10.9903 13.5646 6.10604C13.5727 6.09791 13.5808 6.08979 13.5889 6.08167C5.87132 10.969 0.926636 18.3717 0.926636 26.6923C0.926636 38.8238 18.2765 67.2696 29.3641 76.9651C29.859 77.2129 30.4763 77.3886 31.1301 77.5368C30.9439 77.2606 30.7465 76.9651 30.5411 76.6564C30.3913 76.5996 30.2304 76.5488 30.0978 76.4818L30.0968 76.4838Z" fill="white"/>
    </g>
    <path opacity="0.2" d="M31.3689 77.5958C31.4327 77.609 31.4883 77.6272 31.5521 77.6404C31.5521 77.6394 31.547 77.6313 31.546 77.6303C31.4873 77.6181 31.4266 77.609 31.3689 77.5958Z" fill="#B9467A"/>
    <path opacity="0.2" d="M14.2548 5.65416C14.4754 5.52114 14.7061 5.39827 14.9318 5.27032C14.7071 5.39929 14.4754 5.52114 14.2548 5.65416Z" fill="#B9467A"/>
    <path opacity="0.2" d="M28.01 0.664269C28.0161 0.653099 28.0201 0.642945 28.0262 0.631775C27.7692 0.675439 27.5283 0.747536 27.2743 0.795262C27.5182 0.748552 27.7641 0.706918 28.01 0.664269Z" fill="url(#paint7_linear_13_2074)"/>
    <path opacity="0.2" d="M32.3596 77.7846C32.7685 77.8465 33.1895 77.8953 33.6216 77.9278C33.6175 77.9166 33.6125 77.8994 33.6084 77.8872C33.1864 77.8638 32.7644 77.8394 32.3596 77.7846Z" fill="url(#paint8_linear_13_2074)"/>
    <path d="M15.201 25.4128C14.4885 15.0318 19.1418 6.96002 23.7353 1.60657C24.1947 1.47862 24.6683 1.37606 25.1349 1.26233C20.929 2.27879 17.0499 3.86594 13.7073 5.96488C9.54588 9.9363 5.47659 16.2443 6.09189 25.5143C7.09074 40.5552 24.8677 68.218 31.1381 77.5521C31.4883 77.6333 31.8546 77.7013 32.2281 77.7612C29.8286 71.1141 16.6036 45.8548 15.2 25.4128H15.201Z" fill="url(#paint9_linear_13_2074)"/>
    <path d="M39.2261 77.814C44.3823 64.3258 53.1302 41.0152 53.4955 21.6262C53.6412 13.9047 51.4411 7.34487 48.3747 1.96704C45.194 0.967841 41.7784 0.333184 38.2081 0.111816C43.4138 19.643 39.2069 58.0371 35.6588 77.9978C36.7933 77.9978 38.0249 77.9796 39.2261 77.814Z" fill="url(#paint10_linear_13_2074)"/>
    <path opacity="0.1" d="M36.9481 77.9755C39.1948 68.414 45.4116 40.346 45.1909 23.4154C45.026 10.77 42.6862 3.84359 40.896 0.360602C40.0105 0.251948 39.1148 0.167666 38.2081 0.111816C43.4138 19.643 39.2069 58.0371 35.6588 77.9978C36.0747 77.9978 36.5119 77.9867 36.9471 77.9755H36.9481Z" fill="white"/>
    <path d="M63.0641 10.7822C59.3207 6.89404 54.2637 3.81621 48.3748 1.96606C51.4412 7.34389 53.6413 13.9037 53.4955 21.6252C53.1302 41.0152 44.3824 64.3258 39.2262 77.813C40.2524 77.6709 41.2533 77.4231 42.1408 76.9651C42.5486 76.627 42.9625 76.2594 43.3805 75.8766C52.1162 60.1859 64.3757 35.6587 64.6165 21.1967C64.6823 17.2719 64.0822 13.8214 63.0641 10.7812V10.7822Z" fill="url(#paint11_linear_13_2074)"/>
    <path d="M69.9083 26.6922C69.9083 20.7214 67.3438 15.2288 63.0641 10.7822C64.0821 13.8224 64.6823 17.2729 64.6175 21.1976C64.3766 35.6587 52.1171 60.1868 43.3815 75.8776C54.9265 65.2976 69.9093 38.4004 69.9093 26.6922H69.9083Z" fill="url(#paint12_linear_13_2074)"/>
    <path opacity="0.3" d="M63.0641 10.7822C63.3889 11.7529 63.653 12.7816 63.8848 13.8377C66.8955 17.7918 68.6595 22.3796 68.6595 27.3015C68.6595 38.3476 55.3242 62.9062 44.1212 74.5341C43.8753 74.9809 43.6223 75.444 43.3815 75.8776C54.9265 65.2976 69.9093 38.4004 69.9093 26.6922C69.9093 20.7214 67.3449 15.2288 63.0651 10.7822H63.0641Z" fill="white"/>
    <path opacity="0.1" d="M39.5328 0.233675C39.1463 0.198135 38.7637 0.152439 38.3741 0.126038L38.3002 0.48246C43.3592 20.1233 39.1857 58.159 35.6609 77.9968C36.0768 77.9968 36.514 77.9856 36.9492 77.9745C37.0919 77.3682 37.2497 76.6869 37.4218 75.9395C39.378 64.1572 43.5576 37.5931 43.9442 23.4814C44.3227 9.66314 41.1561 2.8119 39.5339 0.23266L39.5328 0.233675Z" fill="white"/>
    <path d="M29.4502 0.428686C20.2915 14.0611 30.0958 65.386 33.986 77.9501C34.4626 77.9786 34.9423 77.9989 35.417 77.9989C35.6851 77.9989 35.9604 77.9989 36.2397 77.9969C39.3031 65.4358 45.9813 13.4102 39.1837 0.168731C37.945 0.0641397 36.6911 0.00219727 35.417 0.00219727C33.3778 0.00219727 31.3922 0.165685 29.4502 0.428686Z" fill="url(#paint13_linear_13_2074)"/>
    <path opacity="0.2" d="M22.8265 23.8216C23.7677 38.4166 30.9388 66.9782 33.7927 77.9024C33.8544 77.9055 33.9141 77.9146 33.9768 77.9176C30.0806 65.3037 20.3026 14.0651 29.4461 0.434753C29.3257 0.451001 29.2244 0.458109 29.1172 0.468263C29.1172 0.468263 21.6475 5.5445 22.8265 23.8226V23.8216Z" fill="#7132F0"/>
    <g opacity="0.1">
    <path d="M25.135 1.26135C24.6684 1.37508 24.1948 1.47764 23.7354 1.60559C23.7171 1.6259 23.6999 1.64925 23.6827 1.66956C24.1675 1.53451 24.6411 1.38118 25.136 1.26135H25.135Z" fill="#54417D"/>
    </g>
    <path opacity="0.2" d="M12.5699 27.0375C13.8126 43.5802 27.1216 69.0141 31.9114 77.7003C32.0187 77.7196 32.1199 77.744 32.2292 77.7612C29.8297 71.1141 16.6047 45.8548 15.2011 25.4128C14.4906 15.0714 19.1064 7.02398 23.6827 1.67053C23.6149 1.68983 23.5461 1.70912 23.4783 1.72841C21.7609 2.56007 11.1743 8.4578 12.5699 27.0385V27.0375Z" fill="#7132F0"/>
    <path opacity="0.1" d="M39.2262 77.8141C39.3922 77.7907 39.5511 77.744 39.716 77.7146C43.3643 70.2338 56.5417 42.0337 56.6449 24.769C56.7643 4.73115 48.3748 1.9671 48.3748 1.9671C51.4412 7.34492 53.6413 13.9047 53.4955 21.6262C53.1302 41.0162 44.3824 64.3269 39.2262 77.8141Z" fill="#7132F0"/>
    <path opacity="0.1" d="M58.8339 7.1499C60.867 12.1358 63.1289 21.5043 59.938 34.6006C56.6652 48.0289 46.8406 66.7091 40.7594 77.5003C41.2401 77.3642 41.7046 77.1916 42.1408 76.9672C42.5486 76.629 42.9625 76.2614 43.3805 75.8786C52.1162 60.1879 64.3757 35.6607 64.6165 21.1987C64.6823 17.2739 64.0822 13.8234 63.0641 10.7832C61.8011 9.47122 60.3772 8.2608 58.8339 7.1499Z" fill="white"/>
    <path d="M35.418 0.00219727C16.3689 0.00219727 0.926636 11.952 0.926636 26.6923C0.926636 38.8239 18.2765 67.2697 29.3641 76.9652C30.8518 77.7105 33.2007 77.9979 35.418 77.9979C37.6353 77.9979 40.142 77.9979 42.1418 76.9652C53.8214 67.2697 69.9093 38.8239 69.9093 26.6923C69.9083 11.952 54.466 0.00219727 35.418 0.00219727Z" fill="#9E8BB9"/>
    <path d="M15.201 25.4128C16.6056 45.868 29.8468 71.1466 32.2341 77.7745C32.7938 77.8587 33.3878 77.8851 33.9768 77.9176C30.0806 65.3037 20.3025 14.0651 29.446 0.434753C29.3256 0.451001 29.2244 0.458109 29.1171 0.468263C27.2641 0.733296 25.4719 1.12221 23.7353 1.60658C19.1417 6.96003 14.4875 15.0318 15.201 25.4128Z" fill="url(#paint14_linear_13_2074)"/>
    <path opacity="0.2" d="M19.6104 3.01912C20.3522 2.72667 21.1041 2.44438 21.8752 2.19153C21.1051 2.44641 20.3501 2.72261 19.6104 3.01912Z" fill="#B9467A"/>
    <path opacity="0.2" d="M23.366 1.75892C23.3852 1.73861 23.4044 1.71526 23.4237 1.69495C23.0178 1.81172 22.6272 1.95084 22.2295 2.07879C22.6009 1.96099 22.9885 1.86757 23.366 1.75892Z" fill="#B9467A"/>
    <path opacity="0.2" d="M17.2271 4.06605C17.7756 3.80508 18.321 3.54004 18.8898 3.30243C18.3231 3.54208 17.7735 3.80305 17.2271 4.06605Z" fill="#B9467A"/>
    <path d="M6.09295 25.5143C5.48271 16.3327 9.47003 10.0602 13.5889 6.0827C5.87132 10.969 0.926636 18.3717 0.926636 26.6923C0.926636 38.8238 18.2765 67.2696 29.3641 76.9651C29.859 77.2129 30.4763 77.3886 31.1301 77.5368C24.8516 68.1907 7.0918 40.5471 6.09295 25.5143Z" fill="url(#paint15_linear_13_2074)"/>
    <g style="mix-blend-mode:multiply" opacity="0.1">
    <path d="M30.0968 76.4838C19.0102 66.7883 1.66034 38.3425 1.66034 26.2099C1.66034 18.1676 6.28725 10.9903 13.5646 6.10604C13.5727 6.09791 13.5808 6.08979 13.5889 6.08167C5.87132 10.969 0.926636 18.3717 0.926636 26.6923C0.926636 38.8238 18.2765 67.2696 29.3641 76.9651C29.859 77.2129 30.4763 77.3886 31.1301 77.5368C30.9439 77.2606 30.7465 76.9651 30.5411 76.6564C30.3913 76.5996 30.2304 76.5488 30.0978 76.4818L30.0968 76.4838Z" fill="white"/>
    </g>
    <path opacity="0.2" d="M31.3689 77.5958C31.4327 77.609 31.4883 77.6272 31.5521 77.6404C31.5521 77.6394 31.547 77.6313 31.546 77.6303C31.4873 77.6181 31.4266 77.609 31.3689 77.5958Z" fill="#B9467A"/>
    <path opacity="0.2" d="M14.2548 5.65416C14.4754 5.52114 14.7061 5.39827 14.9318 5.27032C14.7071 5.39929 14.4754 5.52114 14.2548 5.65416Z" fill="#B9467A"/>
    <path opacity="0.2" d="M28.01 0.664269C28.0161 0.653099 28.0201 0.642945 28.0262 0.631775C27.7692 0.675439 27.5283 0.747536 27.2743 0.795262C27.5182 0.748552 27.7641 0.706918 28.01 0.664269Z" fill="url(#paint16_linear_13_2074)"/>
    <path opacity="0.2" d="M32.3596 77.7846C32.7685 77.8465 33.1895 77.8953 33.6216 77.9278C33.6175 77.9166 33.6125 77.8994 33.6084 77.8872C33.1864 77.8638 32.7644 77.8394 32.3596 77.7846Z" fill="url(#paint17_linear_13_2074)"/>
    <path d="M15.201 25.4128C14.4885 15.0318 19.1418 6.96002 23.7353 1.60657C24.1947 1.47862 24.6683 1.37606 25.1349 1.26233C20.929 2.27879 17.0499 3.86594 13.7073 5.96488C9.54588 9.9363 5.47659 16.2443 6.09189 25.5143C7.09074 40.5552 24.8677 68.218 31.1381 77.5521C31.4883 77.6333 31.8546 77.7013 32.2281 77.7612C29.8286 71.1141 16.6036 45.8548 15.2 25.4128H15.201Z" fill="url(#paint18_linear_13_2074)"/>
    <path d="M39.2261 77.814C44.3823 64.3258 53.1302 41.0152 53.4955 21.6262C53.6412 13.9047 51.4411 7.34487 48.3747 1.96704C45.194 0.967841 41.7784 0.333184 38.2081 0.111816C43.4138 19.643 39.2069 58.0371 35.6588 77.9978C36.7933 77.9978 38.0249 77.9796 39.2261 77.814Z" fill="url(#paint19_linear_13_2074)"/>
    <path opacity="0.1" d="M36.9481 77.9755C39.1948 68.414 45.4116 40.346 45.1909 23.4154C45.026 10.77 42.6862 3.84359 40.896 0.360602C40.0105 0.251948 39.1148 0.167666 38.2081 0.111816C43.4138 19.643 39.2069 58.0371 35.6588 77.9978C36.0747 77.9978 36.5119 77.9867 36.9471 77.9755H36.9481Z" fill="white"/>
    <path d="M63.0641 10.7822C59.3207 6.89404 54.2637 3.81621 48.3748 1.96606C51.4412 7.34389 53.6413 13.9037 53.4955 21.6252C53.1302 41.0152 44.3824 64.3258 39.2262 77.813C40.2524 77.6709 41.2533 77.4231 42.1408 76.9651C42.5486 76.627 42.9625 76.2594 43.3805 75.8766C52.1162 60.1859 64.3757 35.6587 64.6165 21.1967C64.6823 17.2719 64.0822 13.8214 63.0641 10.7812V10.7822Z" fill="url(#paint20_linear_13_2074)"/>
    <path d="M69.9083 26.6922C69.9083 20.7214 67.3438 15.2288 63.0641 10.7822C64.0821 13.8224 64.6823 17.2729 64.6175 21.1976C64.3766 35.6587 52.1171 60.1868 43.3815 75.8776C54.9265 65.2976 69.9093 38.4004 69.9093 26.6922H69.9083Z" fill="url(#paint21_linear_13_2074)"/>
    <path opacity="0.3" d="M63.0641 10.7822C63.3889 11.7529 63.653 12.7816 63.8848 13.8377C66.8955 17.7918 68.6595 22.3796 68.6595 27.3015C68.6595 38.3476 55.3242 62.9062 44.1212 74.5341C43.8753 74.9809 43.6223 75.444 43.3815 75.8776C54.9265 65.2976 69.9093 38.4004 69.9093 26.6922C69.9093 20.7214 67.3449 15.2288 63.0651 10.7822H63.0641Z" fill="white"/>
    <path opacity="0.1" d="M39.5328 0.233675C39.1463 0.198135 38.7637 0.152439 38.3741 0.126038L38.3002 0.48246C43.3592 20.1233 39.1857 58.159 35.6609 77.9968C36.0768 77.9968 36.514 77.9856 36.9492 77.9745C37.0919 77.3682 37.2497 76.6869 37.4218 75.9395C39.378 64.1572 43.5576 37.5931 43.9442 23.4814C44.3227 9.66314 41.1561 2.8119 39.5339 0.23266L39.5328 0.233675Z" fill="white"/>
    <path d="M29.4502 0.428686C20.2915 14.0611 30.0958 65.386 33.986 77.9501C34.4626 77.9786 34.9423 77.9989 35.417 77.9989C35.6851 77.9989 35.9604 77.9989 36.2397 77.9969C39.3031 65.4358 45.9813 13.4102 39.1837 0.168731C37.945 0.0641397 36.6911 0.00219727 35.417 0.00219727C33.3778 0.00219727 31.3922 0.165685 29.4502 0.428686Z" fill="url(#paint22_linear_13_2074)"/>
    <path opacity="0.2" d="M22.8265 23.8216C23.7677 38.4166 30.9388 66.9782 33.7927 77.9024C33.8544 77.9055 33.9141 77.9146 33.9768 77.9176C30.0806 65.3037 20.3026 14.0651 29.4461 0.434753C29.3257 0.451001 29.2244 0.458109 29.1172 0.468263C29.1172 0.468263 21.6475 5.5445 22.8265 23.8226V23.8216Z" fill="#7132F0"/>
    <g opacity="0.1">
    <path d="M25.135 1.26135C24.6684 1.37508 24.1948 1.47764 23.7354 1.60559C23.7171 1.6259 23.6999 1.64925 23.6827 1.66956C24.1675 1.53451 24.6411 1.38118 25.136 1.26135H25.135Z" fill="#54417D"/>
    </g>
    <path opacity="0.2" d="M12.5699 27.0375C13.8126 43.5802 27.1216 69.0141 31.9114 77.7003C32.0187 77.7196 32.1199 77.744 32.2292 77.7612C29.8297 71.1141 16.6047 45.8548 15.2011 25.4128C14.4906 15.0714 19.1064 7.02398 23.6827 1.67053C23.6149 1.68983 23.5461 1.70912 23.4783 1.72841C21.7609 2.56007 11.1743 8.4578 12.5699 27.0385V27.0375Z" fill="#7132F0"/>
    <path opacity="0.1" d="M39.2262 77.8141C39.3922 77.7907 39.5511 77.744 39.716 77.7146C43.3643 70.2338 56.5417 42.0337 56.6449 24.769C56.7643 4.73115 48.3748 1.9671 48.3748 1.9671C51.4412 7.34492 53.6413 13.9047 53.4955 21.6262C53.1302 41.0162 44.3824 64.3269 39.2262 77.8141Z" fill="#7132F0"/>
    <path opacity="0.1" d="M58.8339 7.1499C60.867 12.1358 63.1289 21.5043 59.938 34.6006C56.6652 48.0289 46.8406 66.7091 40.7594 77.5003C41.2401 77.3642 41.7046 77.1916 42.1408 76.9672C42.5486 76.629 42.9625 76.2614 43.3805 75.8786C52.1162 60.1879 64.3757 35.6607 64.6165 21.1987C64.6823 17.2739 64.0822 13.8234 63.0641 10.7832C61.8011 9.47122 60.3772 8.2608 58.8339 7.1499Z" fill="white"/>
    <path style="mix-blend-mode:multiply" opacity="0.2" d="M51.2116 66.9821C51.2288 66.9588 51.246 66.9364 51.2642 66.9141C51.5901 66.4795 51.915 66.0367 52.2398 65.5899C52.3016 65.5046 52.3633 65.4224 52.425 65.3361C52.7256 64.9197 53.0241 64.4953 53.3237 64.0688C53.4077 63.949 53.4917 63.8322 53.5747 63.7114C53.855 63.3082 54.1333 62.899 54.4116 62.4877C54.5138 62.3364 54.617 62.1872 54.7192 62.0349C54.9803 61.6449 55.2394 61.2509 55.4975 60.8559C55.6139 60.6772 55.7313 60.5005 55.8476 60.3218C56.0956 59.938 56.3415 59.55 56.5874 59.1611C56.7109 58.9662 56.8344 58.7732 56.9558 58.5772C57.1896 58.2036 57.4193 57.8278 57.65 57.4511C57.7836 57.2318 57.9182 57.0135 58.0508 56.7931C58.2694 56.4306 58.4849 56.0671 58.7005 55.7025C58.8381 55.469 58.9768 55.2354 59.1134 55.0008C59.3229 54.6414 59.5303 54.2809 59.7358 53.9194C59.8744 53.6767 60.0121 53.434 60.1487 53.1913C60.346 52.84 60.5413 52.4876 60.7356 52.1352C60.8763 51.8793 61.017 51.6234 61.1556 51.3675C61.3408 51.0264 61.523 50.6852 61.7041 50.343C61.8458 50.0749 61.9875 49.8068 62.1272 49.5397C62.3002 49.2087 62.4702 48.8787 62.6382 48.5476C62.7799 48.2694 62.9196 47.9922 63.0582 47.715C63.2191 47.3931 63.378 47.0722 63.5349 46.7523C63.6725 46.4711 63.8081 46.1898 63.9427 45.9095C64.0935 45.5937 64.2433 45.2799 64.39 44.9651C64.5236 44.6788 64.6542 44.3945 64.7847 44.1101C64.9233 43.8075 65.06 43.5049 65.1946 43.2043C65.3251 42.9119 65.4516 42.6215 65.5771 42.3311C65.7036 42.0396 65.8291 41.7492 65.9505 41.4608C66.074 41.1684 66.1924 40.879 66.3108 40.5896C66.4262 40.3063 66.5426 40.025 66.6529 39.7447C66.7693 39.4523 66.8796 39.1639 66.9899 38.8755C67.0931 38.6064 67.1973 38.3363 67.2955 38.0702C67.4038 37.7768 67.506 37.4884 67.6082 37.199C67.6993 36.9431 67.7914 36.6862 67.8774 36.4343C67.9756 36.1449 68.0667 35.8616 68.1587 35.5773C68.2387 35.3316 68.3196 35.0848 68.3945 34.8441C68.4816 34.5608 68.5605 34.2846 68.6415 34.0074C68.7093 33.7749 68.7791 33.5403 68.8419 33.3118C68.9178 33.0336 68.9835 32.7645 69.0523 32.4934C69.107 32.2751 69.1667 32.0537 69.2163 31.8394C69.28 31.5673 69.3317 31.3053 69.3873 31.0413C69.4298 30.8392 69.4764 30.6321 69.5138 30.4351C69.5644 30.1629 69.6039 29.903 69.6454 29.64C69.6737 29.4623 69.7071 29.2785 69.7314 29.1058C69.7709 28.8134 69.7962 28.5341 69.8225 28.2539C69.8346 28.1229 69.8549 27.9848 69.864 27.8558C69.8933 27.4527 69.9095 27.0638 69.9095 26.6901C69.9095 25.8503 69.8468 25.0227 69.7476 24.2043C69.7112 23.9037 69.6525 23.6102 69.6039 23.3137C69.5209 22.8111 69.4278 22.3125 69.3094 21.819C69.2203 21.4453 69.1181 21.0777 69.0098 20.7101C68.8955 20.3293 68.769 19.9536 68.6344 19.5789C68.4806 19.1483 68.3257 18.7208 68.1456 18.2994C68.0535 18.0862 67.9452 17.878 67.846 17.6668C66.6883 15.1769 65.0721 12.8637 63.0663 10.78C63.0663 10.78 63.0663 10.779 63.0653 10.779C61.6981 9.35839 60.1568 8.05049 58.4576 6.86749C58.3858 6.81773 58.3159 6.76696 58.2441 6.7172C57.7077 6.34961 57.1602 5.9942 56.5945 5.65301C56.4862 5.58802 56.3739 5.52709 56.2656 5.46211C55.2728 4.87721 54.2396 4.33597 53.1658 3.83535C52.9432 3.73178 52.7256 3.62211 52.4989 3.52158C51.9888 3.29615 51.4687 3.08494 50.9434 2.87982C50.6145 2.75085 50.2816 2.629 49.9476 2.50816C48.0622 1.82883 46.0858 1.2815 44.0334 0.872271C43.7673 0.819468 43.5052 0.761587 43.236 0.713861C42.561 0.593023 41.8789 0.492493 41.1897 0.402118C40.9347 0.369624 40.6786 0.340176 40.4226 0.311743C40.0097 0.265032 39.6039 0.201059 39.1859 0.165518C38.9471 0.145209 38.7052 0.135055 38.4643 0.118808C37.4604 0.0487416 36.4484 0 35.4202 0C34.392 0 33.3587 0.0436643 32.3478 0.119823C31.3691 0.186843 30.4077 0.296511 29.4544 0.425474C28.9778 0.490462 28.5001 0.549358 28.0305 0.629579C28.0305 0.629579 28.0295 0.629579 28.0285 0.629579C27.5478 0.710815 27.0802 0.815406 26.6066 0.911874C26.5014 0.934214 26.3941 0.952492 26.2888 0.974832C25.4236 1.15863 24.5765 1.36883 23.7396 1.60238C23.6354 1.63183 23.5321 1.66128 23.4279 1.69072C19.8808 2.71125 16.5988 4.14811 13.7136 5.96069C10.8 7.79053 8.30037 9.98796 6.28545 12.4504C6.14276 12.6241 6.00816 12.8028 5.87053 12.9785C5.44852 13.5227 5.04574 14.0752 4.67332 14.6438C4.44258 14.9931 4.22298 15.3475 4.01248 15.706C3.81615 16.0421 3.62286 16.3772 3.44373 16.7194C3.1634 17.2535 2.90939 17.7978 2.67359 18.3482C2.58048 18.5665 2.48434 18.7838 2.39832 19.0052C2.13621 19.6764 1.91155 20.3598 1.71825 21.0523C1.66866 21.23 1.62312 21.4077 1.57758 21.5875C1.39137 22.3267 1.23957 23.0741 1.13432 23.8336C1.11813 23.9545 1.10801 24.0763 1.09384 24.1972C0.994665 25.0187 0.930908 25.8483 0.930908 26.6901C0.930908 38.8217 18.2808 67.2675 29.3684 76.963C29.6457 77.1021 29.9655 77.2148 30.3045 77.3164C31.2669 77.6322 32.4064 77.8322 33.6097 77.9236C33.6148 77.9236 33.6198 77.9246 33.6259 77.9256C34.222 77.9703 34.8251 77.9957 35.4222 77.9957C36.6205 77.9957 37.9452 77.9886 39.2304 77.8119H39.2314C39.7314 77.7429 40.2252 77.6474 40.7029 77.5144C40.7231 77.5083 40.7434 77.5032 40.7646 77.4971C40.7768 77.4941 40.7869 77.488 40.798 77.4839C41.2656 77.3478 41.72 77.1833 42.146 76.963C42.5539 76.6248 42.9678 76.2583 43.3847 75.8764H43.3857C45.8965 73.5734 48.5693 70.5017 51.2167 66.9801L51.2116 66.9821Z" fill="url(#paint23_linear_13_2074)"/>
    <path opacity="0.1" d="M29.7021 22.8742C-10.6821 22.8742 5.88952 5.46228 33.4617 5.46228C61.034 5.46228 85.4042 22.8742 29.7021 22.8742Z" fill="white"/>
    <path d="M35.7398 82.6324C31.7191 82.6324 33.7573 79.4357 33.7573 79.4357L34.2147 80.2572C34.2147 80.2572 35.332 79.8257 35.5739 79.0763C35.8157 78.3269 35.6811 78.3878 35.67 78.1928C35.6589 77.9978 38.368 78.5371 38.2921 80.1993C38.2162 81.8626 37.5331 82.6313 35.7408 82.6313L35.7398 82.6324Z" fill="url(#paint24_linear_13_2074)"/>
    <path d="M30.5371 81.7479H40.9436C41.4051 81.7479 41.7795 82.1236 41.7795 82.5867V82.6771C41.7795 83.1401 41.4051 83.5158 40.9436 83.5158H30.5371C30.0756 83.5158 29.7012 83.1401 29.7012 82.6771V82.5867C29.7012 82.1236 30.0756 81.7479 30.5371 81.7479Z" fill="#808080"/>
    <defs>
    <linearGradient id="paint0_linear_13_2074" x1="33.5245" y1="95.4139" x2="45.1671" y2="84.2418" gradientUnits="userSpaceOnUse">
    <stop stop-color="#E75900"/>
    <stop offset="0.56" stop-color="#E78E00"/>
    </linearGradient>
    <linearGradient id="paint1_linear_13_2074" x1="35.6588" y1="90.8819" x2="35.6588" y2="91.477" gradientUnits="userSpaceOnUse">
    <stop stop-color="#520091"/>
    <stop offset="1" stop-color="#E6E6E6"/>
    </linearGradient>
    <linearGradient id="paint2_linear_13_2074" x1="32.6592" y1="97.3209" x2="40.1246" y2="86.5381" gradientUnits="userSpaceOnUse">
    <stop stop-color="#520091"/>
    <stop offset="1" stop-color="#E6E6E6"/>
    </linearGradient>
    <linearGradient id="paint3_linear_13_2074" x1="35.6588" y1="90.4698" x2="35.6588" y2="85.8495" gradientUnits="userSpaceOnUse">
    <stop stop-color="#E75900"/>
    <stop offset="0.56" stop-color="#E78E00"/>
    </linearGradient>
    <linearGradient id="paint4_linear_13_2074" x1="35.6639" y1="90.7936" x2="35.6639" y2="89.7913" gradientUnits="userSpaceOnUse">
    <stop stop-color="#520091"/>
    <stop offset="1" stop-color="#E6E6E6"/>
    </linearGradient>
    <linearGradient id="paint5_linear_13_2074" x1="24.553" y1="70.3972" x2="24.553" y2="-1.83884" gradientUnits="userSpaceOnUse">
    <stop stop-color="#B06BC9"/>
    <stop offset="0.6" stop-color="#D5B5FF"/>
    <stop offset="1" stop-color="#AC85FF"/>
    </linearGradient>
    <linearGradient id="paint6_linear_13_2074" x1="16.0279" y1="83.462" x2="16.0279" y2="7.10019" gradientUnits="userSpaceOnUse">
    <stop stop-color="#B06BC9"/>
    <stop offset="0.6" stop-color="#D5B5FF"/>
    <stop offset="1" stop-color="#AC85FF"/>
    </linearGradient>
    <linearGradient id="paint7_linear_13_2074" x1="27.6508" y1="74.8195" x2="27.6508" y2="6.65746" gradientUnits="userSpaceOnUse">
    <stop stop-color="#746BC9"/>
    <stop offset="0.73" stop-color="#DCD9FF"/>
    <stop offset="1" stop-color="#D8D4FF"/>
    </linearGradient>
    <linearGradient id="paint8_linear_13_2074" x1="32.9901" y1="74.7971" x2="32.9901" y2="6.6496" gradientUnits="userSpaceOnUse">
    <stop stop-color="#746BC9"/>
    <stop offset="0.73" stop-color="#DCD9FF"/>
    <stop offset="1" stop-color="#D8D4FF"/>
    </linearGradient>
    <linearGradient id="paint9_linear_13_2074" x1="19.1296" y1="79.1301" x2="19.1296" y2="-1.98711" gradientUnits="userSpaceOnUse">
    <stop stop-color="#746BC9"/>
    <stop offset="0.73" stop-color="#DCD9FF"/>
    <stop offset="1" stop-color="#D8D4FF"/>
    </linearGradient>
    <linearGradient id="paint10_linear_13_2074" x1="44.5807" y1="70.4378" x2="44.5807" y2="-2.17295" gradientUnits="userSpaceOnUse">
    <stop stop-color="#B06BC9"/>
    <stop offset="0.6" stop-color="#D5B5FF"/>
    <stop offset="1" stop-color="#AC85FF"/>
    </linearGradient>
    <linearGradient id="paint11_linear_13_2074" x1="51.9239" y1="75.3729" x2="51.9239" y2="6.70313" gradientUnits="userSpaceOnUse">
    <stop stop-color="#746BC9"/>
    <stop offset="0.73" stop-color="#DCD9FF"/>
    <stop offset="1" stop-color="#D8D4FF"/>
    </linearGradient>
    <linearGradient id="paint12_linear_13_2074" x1="56.6449" y1="72.6312" x2="56.6449" y2="13.1482" gradientUnits="userSpaceOnUse">
    <stop stop-color="#B06BC9"/>
    <stop offset="0.6" stop-color="#D5B5FF"/>
    <stop offset="1" stop-color="#AC85FF"/>
    </linearGradient>
    <linearGradient id="paint13_linear_13_2074" x1="33.8939" y1="80.8899" x2="33.8939" y2="-4.22106" gradientUnits="userSpaceOnUse">
    <stop stop-color="#746BC9"/>
    <stop offset="0.73" stop-color="#DCD9FF"/>
    <stop offset="1" stop-color="#D8D4FF"/>
    </linearGradient>
    <linearGradient id="paint14_linear_13_2074" x1="24.553" y1="70.3972" x2="24.553" y2="-1.83884" gradientUnits="userSpaceOnUse">
    <stop stop-color="#B06BC9"/>
    <stop offset="0.6" stop-color="#D5B5FF"/>
    <stop offset="1" stop-color="#AC85FF"/>
    </linearGradient>
    <linearGradient id="paint15_linear_13_2074" x1="16.0279" y1="83.462" x2="16.0279" y2="7.10019" gradientUnits="userSpaceOnUse">
    <stop stop-color="#B06BC9"/>
    <stop offset="0.6" stop-color="#D5B5FF"/>
    <stop offset="1" stop-color="#AC85FF"/>
    </linearGradient>
    <linearGradient id="paint16_linear_13_2074" x1="27.6508" y1="74.8195" x2="27.6508" y2="6.65746" gradientUnits="userSpaceOnUse">
    <stop stop-color="#746BC9"/>
    <stop offset="0.73" stop-color="#DCD9FF"/>
    <stop offset="1" stop-color="#D8D4FF"/>
    </linearGradient>
    <linearGradient id="paint17_linear_13_2074" x1="32.9901" y1="74.7971" x2="32.9901" y2="6.6496" gradientUnits="userSpaceOnUse">
    <stop stop-color="#746BC9"/>
    <stop offset="0.73" stop-color="#DCD9FF"/>
    <stop offset="1" stop-color="#D8D4FF"/>
    </linearGradient>
    <linearGradient id="paint18_linear_13_2074" x1="19.1296" y1="79.1301" x2="19.1296" y2="-1.98711" gradientUnits="userSpaceOnUse">
    <stop stop-color="#746BC9"/>
    <stop offset="0.73" stop-color="#DCD9FF"/>
    <stop offset="1" stop-color="#D8D4FF"/>
    </linearGradient>
    <linearGradient id="paint19_linear_13_2074" x1="44.5807" y1="70.4378" x2="44.5807" y2="-2.17295" gradientUnits="userSpaceOnUse">
    <stop stop-color="#B06BC9"/>
    <stop offset="0.6" stop-color="#D5B5FF"/>
    <stop offset="1" stop-color="#AC85FF"/>
    </linearGradient>
    <linearGradient id="paint20_linear_13_2074" x1="51.9239" y1="75.3729" x2="51.9239" y2="6.70313" gradientUnits="userSpaceOnUse">
    <stop stop-color="#746BC9"/>
    <stop offset="0.73" stop-color="#DCD9FF"/>
    <stop offset="1" stop-color="#D8D4FF"/>
    </linearGradient>
    <linearGradient id="paint21_linear_13_2074" x1="56.6449" y1="72.6312" x2="56.6449" y2="13.1482" gradientUnits="userSpaceOnUse">
    <stop stop-color="#B06BC9"/>
    <stop offset="0.6" stop-color="#D5B5FF"/>
    <stop offset="1" stop-color="#AC85FF"/>
    </linearGradient>
    <linearGradient id="paint22_linear_13_2074" x1="33.8939" y1="80.8899" x2="33.8939" y2="-4.22106" gradientUnits="userSpaceOnUse">
    <stop stop-color="#746BC9"/>
    <stop offset="0.73" stop-color="#DCD9FF"/>
    <stop offset="1" stop-color="#D8D4FF"/>
    </linearGradient>
    <linearGradient id="paint23_linear_13_2074" x1="35.4182" y1="71.4125" x2="35.4182" y2="35.1508" gradientUnits="userSpaceOnUse">
    <stop stop-color="#520091"/>
    <stop offset="1" stop-color="#E6E6E6"/>
    </linearGradient>
    <linearGradient id="paint24_linear_13_2074" x1="35.7672" y1="78.5878" x2="35.7672" y2="83.2944" gradientUnits="userSpaceOnUse">
    <stop offset="0.01" stop-color="#FFD500"/>
    <stop offset="1" stop-color="#E32B00"/>
    </linearGradient>
    </defs>
    </svg>
    