<svg width="81" height="111" viewBox="0 0 81 111" fill="none" xmlns="http://www.w3.org/2000/svg">
    <path d="M40.1774 95.6475C36.4654 95.6475 37.5535 92.5526 38.2143 92.0582C38.8762 91.5639 39.4735 91.5205 39.4735 91.5205C39.4735 91.5205 39.0122 92.3802 40.0006 92.4019C40.9889 92.4236 41.1805 91.3493 41.1805 91.3493C41.1805 91.3493 42.4397 91.3059 42.4816 92.8962C42.5247 94.4865 42.3966 95.6464 40.1774 95.6464V95.6475Z" fill="url(#paint0_linear_13_2398)"/>
    <path d="M47.3813 102.555H33.5412L33.7429 101.934C34.6451 99.166 35.5859 96.0528 35.5972 95.6372C35.5972 95.0847 34.5533 91.6267 31.424 87.4415L32.172 86.873C35.4623 91.2705 36.5368 94.8872 36.5368 95.6395C36.5368 96.256 35.4113 99.827 34.8367 101.609H45.9566C45.3151 100.067 43.8711 96.4592 43.8711 95.1954C43.8711 93.6508 47.6488 87.897 48.4059 86.7599L49.1869 87.2885C47.4947 89.8298 44.8096 94.225 44.8096 95.1966C44.8096 96.329 46.4599 100.415 47.0968 101.894L47.3813 102.555Z" fill="#626578"/>
    <path d="M46.0292 100.977H34.7709C32.7761 100.977 32.6446 103.696 33.4018 103.696H33.9333C33.9333 103.696 35.086 110.001 37.2769 110.001H43.5243C45.7152 110.001 46.8679 103.696 46.8679 103.696H47.3983C48.1554 103.696 48.024 100.977 46.0292 100.977Z" fill="url(#paint1_linear_13_2398)"/>
    <g opacity="0.1">
    <path d="M43.8586 109.539H37.6112C35.4203 109.539 34.2676 103.234 34.2676 103.234H33.7361C33.2861 103.234 33.1625 102.277 33.5445 101.498C32.7987 102.286 32.869 103.695 33.4153 103.695H33.9469C33.9469 103.695 35.0996 110 37.2905 110H43.5379C44.1669 110 44.7075 109.473 45.1632 108.731C44.7789 109.217 44.346 109.54 43.8586 109.54V109.539Z" fill="white"/>
    <path d="M47.7326 103.235H47.2021C47.2021 103.235 47.1681 103.414 47.1069 103.695H47.4118C47.6158 103.695 47.7484 103.489 47.804 103.199C47.7779 103.206 47.7609 103.235 47.7314 103.235H47.7326Z" fill="white"/>
    </g>
    <g opacity="0.3">
    <path d="M44.9626 109.025C45.9272 107.664 46.5324 105.252 46.7625 104.207H46.5483C46.5483 104.207 46.0077 107.162 44.9638 109.025H44.9626Z" fill="#FFD3AD"/>
    <path d="M46.0292 100.977H34.7709C33.9084 100.977 33.4108 101.489 33.166 102.067C33.455 101.735 33.8642 101.489 34.4502 101.489H45.7084C47.1331 101.489 47.5967 102.866 47.4754 103.658C48.1317 103.459 47.9446 100.977 46.0292 100.977Z" fill="#FFD3AD"/>
    </g>
    <path style="mix-blend-mode:multiply" opacity="0.5" d="M46.8679 103.695H33.9333C33.9333 103.695 34.0365 104.252 34.2348 105.027H46.5664C46.7648 104.252 46.8679 103.695 46.8679 103.695Z" fill="url(#paint2_linear_13_2398)"/>
    <path style="mix-blend-mode:multiply" opacity="0.2" d="M45.1972 108.336C38.9476 108.246 37.9502 103.696 37.9502 103.696H33.9333C33.9333 103.696 35.086 110.001 37.2769 110.001H43.5243C44.2576 110.001 44.872 109.289 45.3684 108.348C45.3095 108.346 45.2562 108.338 45.1972 108.337V108.336Z" fill="url(#paint3_linear_13_2398)"/>
    <path style="mix-blend-mode:multiply" opacity="0.3" d="M36.6413 100.977H34.7723C32.8568 100.977 32.6698 103.457 33.326 103.658H40.0925C40.0925 103.658 37.2227 102.677 36.6413 100.977Z" fill="url(#paint4_linear_13_2398)"/>
    <path d="M40.0006 0C17.908 0 0 13.9118 0 31.0716C0 45.1957 20.1216 78.3108 32.979 89.5981C34.7041 90.4657 37.4277 90.8002 39.9994 90.8002C42.5712 90.8002 45.4784 90.8002 47.7973 89.5981C61.3428 78.3108 80 45.1946 80 31.0716C80 13.9118 62.092 0 40.0006 0Z" fill="url(#paint5_linear_13_2398)"/>
    <path style="mix-blend-mode:multiply" opacity="0.4" d="M40.0006 0C17.908 0 0 13.9118 0 31.0716C0 45.1957 20.1216 78.3108 32.979 89.5981C34.7041 90.4657 37.4277 90.8002 39.9994 90.8002C42.5712 90.8002 45.4784 90.8002 47.7973 89.5981C61.3428 78.3108 80 45.1946 80 31.0716C80 13.9118 62.092 0 40.0006 0Z" fill="url(#paint6_linear_13_2398)"/>
    <path opacity="0.4" d="M40.0005 0C35.8182 0 31.7878 0.502314 27.9988 1.42703C31.1315 0.815119 34.3935 0.454366 37.7711 0.454366C59.8625 0.454366 77.7717 14.3662 77.7717 31.5271C77.7717 45.6501 59.1145 78.7663 45.569 90.0536C45.1009 90.2956 44.6022 90.4782 44.0899 90.6335C45.3945 90.4794 46.6752 90.1826 47.7996 89.5992C61.3451 78.312 80.0022 45.1957 80.0022 31.0727C80 13.9118 62.092 0 40.0005 0Z" fill="url(#paint7_linear_13_2398)"/>
    <path opacity="0.2" d="M66.7413 8.01078C65.0661 6.83833 63.2719 5.7732 61.3587 4.83136C63.7717 13.0122 67.2094 28.3088 65.465 44.875C62.8831 69.3845 47.7985 89.5981 47.4301 89.4748C47.336 89.4428 47.2771 89.5969 47.2419 89.8435C47.429 89.7647 47.6182 89.6905 47.7985 89.5981C49.2606 88.3788 50.785 86.8936 52.3367 85.2165C60.1459 73.8379 74.2331 50.9986 74.8543 34.6289C75.3688 21.0675 70.6379 12.6298 66.7413 8.00964V8.01078Z" fill="url(#paint8_linear_13_2398)"/>
    <path opacity="0.2" d="M39.6481 90.7887V0.0136719C38.0329 0.0250881 36.4484 0.126693 34.8843 0.281953C31.9522 3.32324 27.0433 12.1115 27.0433 36.9109C27.0433 67.4288 35.2209 86.1252 37.4572 90.6677C38.1826 90.7362 38.9136 90.7796 39.6492 90.7887H39.6481Z" fill="url(#paint9_linear_13_2398)"/>
    <path opacity="0.3" d="M28.8466 33.9553C28.8466 60.6088 33.3145 80.6249 38.2199 90.7088C38.6948 90.7419 39.1697 90.7819 39.6492 90.7876V0.0136719C38.2777 0.0228049 36.9324 0.107285 35.5995 0.224872C33.3179 3.01272 28.8477 11.3534 28.8477 33.9553H28.8466Z" fill="url(#paint10_linear_13_2398)"/>
    <path d="M36.6797 0.130145C33.1706 4.3747 30.0979 15.9382 30.0979 37.1085C30.0979 59.5151 35.8885 82.7883 38.0624 90.7351C38.7062 90.7796 39.3579 90.8013 40.0006 90.8013C40.395 90.8013 40.8042 90.799 41.2179 90.7945C43.3782 82.9081 49.1983 59.5745 49.1983 37.1085C49.1983 15.8937 46.112 4.32561 42.595 0.101605C41.7336 0.0582228 40.8767 0 40.0006 0C38.8796 0 37.7779 0.0605061 36.6808 0.130145H36.6797Z" fill="url(#paint11_linear_13_2398)"/>
    <path style="mix-blend-mode:multiply" opacity="0.4" d="M36.6797 0.130133C33.1706 4.37469 30.0979 15.9382 30.0979 37.1085C30.0979 59.5151 35.8885 82.7883 38.0624 90.7351C38.3582 90.7556 38.6563 90.7545 38.9556 90.7659C37.5853 79.9057 33.3463 56.4167 32.877 38.5275C32.3489 18.3813 35.2255 4.43291 38.0658 0.0764771C37.6057 0.0981679 37.1387 0.101593 36.6808 0.131275L36.6797 0.130133Z" fill="url(#paint12_linear_13_2398)"/>
    <path opacity="0.2" d="M58.2656 30.8866C58.1092 62.7653 49.442 78.0894 45.2585 90.444C45.9341 90.3093 46.588 90.1175 47.2092 89.8584C49.4137 86.0362 52.2381 80.9137 55.0966 75.0994C61.2001 62.6866 66.0114 27.5771 62.6078 13.2725C61.752 9.67756 60.5257 6.51869 59.1701 3.7982C56.6766 2.73877 54.0153 1.89511 51.2351 1.26379C54.2522 5.38391 58.3472 14.1562 58.2656 30.8855V30.8866Z" fill="url(#paint13_linear_13_2398)"/>
    <path opacity="0.1" d="M47.7974 89.5992C48.0025 89.4279 48.2122 89.2361 48.4196 89.0558C50.5504 85.3306 53.1811 80.5233 55.848 75.1006C61.9515 62.6877 66.7628 27.5782 63.3592 13.2736C62.5499 9.8716 61.4029 6.87256 60.1335 4.25481C57.8984 3.23991 55.5307 2.39168 53.0462 1.72498C55.3221 4.82106 59.5169 12.4243 60.0303 26.9868C60.7058 46.1535 53.3024 77.1635 46.4214 90.1472C46.8963 89.9976 47.3621 89.8264 47.7974 89.6003V89.5992Z" fill="url(#paint14_linear_13_2398)"/>
    <path d="M64.0142 6.26522C60.6015 4.26852 56.7796 2.68052 52.6415 1.60968C59.3933 7.41484 60.2343 16.6597 60.0269 36.7934C59.7549 63.1455 49.5507 83.6958 45.8342 90.3195C46.5199 90.1472 47.183 89.9177 47.7973 89.5992C48.7312 88.8206 49.6924 87.929 50.6671 86.9563C57.4257 76.1965 69.9942 54.7682 72.0366 41.1669C74.1141 27.3305 71.4925 14.389 64.0142 6.26522Z" fill="url(#paint15_linear_13_2398)"/>
    <path opacity="0.2" d="M64.0143 6.26522C60.6016 4.26852 56.7797 2.68052 52.6416 1.60968C53.3341 2.20561 53.9495 2.84834 54.523 3.52418C57.0098 4.43748 59.3718 5.52317 61.5491 6.79722C69.0274 14.921 71.6501 27.8625 69.5714 41.6989C67.529 55.2991 54.9605 76.7285 48.202 87.4872C47.6273 88.0603 47.0606 88.5934 46.4996 89.1037C46.2627 89.5421 46.0349 89.9611 45.8331 90.3195C46.5188 90.1472 47.1819 89.9177 47.7962 89.5992C48.7301 88.8206 49.6913 87.929 50.666 86.9563C57.4246 76.1965 69.9931 54.7682 72.0355 41.1681C74.113 27.3316 71.4914 14.3902 64.0131 6.26636L64.0143 6.26522Z" fill="#FFB88F"/>
    <path opacity="0.1" d="M40.2975 0.0114136C42.3671 4.16578 46.1244 14.2075 46.2944 32.7395C46.4871 53.7122 42.1461 81.4366 40.5661 90.7979C40.7837 90.7979 40.9957 90.7979 41.2178 90.7945C43.3781 82.9081 49.1982 59.5745 49.1982 37.1085C49.1982 15.8937 46.1119 4.32561 42.5949 0.101602C41.8321 0.0639283 41.0705 0.0228298 40.2986 0.0114136H40.2975Z" fill="url(#paint16_linear_13_2398)"/>
    <path opacity="0.2" d="M13.5647 7.79501C9.59773 12.5453 5.09466 20.999 6.23375 34.3937C7.62898 50.8114 19.1751 71.3914 25.6809 81.8441C27.4853 84.0372 29.2512 86.0019 30.9286 87.6664L31.492 87.0237C31.492 87.0237 17.1882 66.9425 12.8846 40.5402C10.2256 24.2287 15.3317 11.6252 19.6228 4.36786C17.4636 5.3645 15.4382 6.50954 13.5658 7.79387L13.5647 7.79501Z" fill="url(#paint17_linear_13_2398)"/>
    <path d="M28.298 1.35852C24.5181 2.25584 20.9761 3.57441 17.7629 5.24689C9.52183 13.2782 6.56928 26.7322 8.7375 41.1669C10.7573 54.6198 23.0798 75.7376 29.8882 86.6081C30.9525 87.7178 31.9896 88.7304 32.979 89.5992C33.5151 89.8686 34.168 90.0707 34.8616 90.243C30.9332 83.4127 20.1578 62.3132 19.8869 35.9657C19.6772 15.6106 21.1371 6.95704 28.298 1.35852Z" fill="url(#paint18_linear_13_2398)"/>
    <path opacity="0.1" d="M11.9644 39.2753C9.8528 25.2116 12.6161 12.0932 20.38 3.99908C19.4868 4.39066 18.6107 4.80393 17.7618 5.24574C9.52184 13.2782 6.56929 26.7322 8.73751 41.1669C10.7573 54.6198 23.0798 75.7376 29.8882 86.6081C30.9525 87.7178 31.9896 88.7304 32.979 89.5992C33.5152 89.8686 34.168 90.0706 34.8616 90.243C33.4018 87.7041 30.9956 83.1889 28.5349 77.1726C21.8217 65.7643 13.584 50.0613 11.9644 39.2764V39.2753Z" fill="#170200"/>
    <g opacity="0.1">
    <path d="M34.2553 90.0695C34.4559 90.1289 34.6519 90.1905 34.8616 90.2431C34.0059 88.7555 32.8169 86.5545 31.4908 83.8066C32.5857 86.3901 33.5355 88.5066 34.2553 90.0695Z" fill="url(#paint19_linear_13_2398)"/>
    <path d="M19.8869 35.9657C19.6773 15.6106 21.1371 6.95704 28.298 1.35852C26.6535 1.74896 25.0633 2.233 23.5162 2.77756C20.2678 6.43075 16.8063 13.8958 17.1871 29.1137C17.458 39.9203 20.2621 51.8788 23.6057 62.505C21.5191 54.6701 19.9867 45.6786 19.8869 35.9646V35.9657Z" fill="url(#paint20_linear_13_2398)"/>
    </g>
    <path opacity="0.4" d="M41.5556 89.9737C38.9839 89.9737 36.2603 89.6392 34.5352 88.7715C21.6766 77.4843 1.55505 44.3681 1.55505 30.2451C1.55505 19.8186 8.18894 10.6148 18.3319 4.97864C7.31168 10.5121 0 20.12 0 31.0716C0 45.1958 20.1216 78.3108 32.979 89.5981C34.7041 90.4657 37.4277 90.8002 39.9994 90.8002C42.5712 90.8002 45.4784 90.8002 47.7973 89.5981C47.93 89.4885 48.0648 89.3617 48.1986 89.2476C46.0961 89.9634 43.6581 89.9725 41.5545 89.9725L41.5556 89.9737Z" fill="url(#paint21_linear_13_2398)"/>
    <path opacity="0.2" d="M46.6333 2.79127C15.2377 -3.17714 2.8959 18.8882 43.453 20.7878C84.01 22.6875 76.9239 8.54848 46.6333 2.79127Z" fill="url(#paint22_linear_13_2398)"/>
    <path d="M44.5003 93.9316H35.612C35.1319 93.9316 34.7427 94.3237 34.7427 94.8073V96.1532C34.7427 96.6368 35.1319 97.0289 35.612 97.0289H44.5003C44.9804 97.0289 45.3696 96.6368 45.3696 96.1532V94.8073C45.3696 94.3237 44.9804 93.9316 44.5003 93.9316Z" fill="#626578"/>
    <path opacity="0.1" d="M34.7427 95.4808V96.1533C34.7427 96.6373 35.1314 97.0289 35.612 97.0289H44.5003C44.9808 97.0289 45.3696 96.6373 45.3696 96.1533V95.4808H34.7427Z" fill="#3A3C47"/>
    <defs>
    <linearGradient id="paint0_linear_13_2398" x1="40.013" y1="90.2967" x2="40.013" y2="96.5985" gradientUnits="userSpaceOnUse">
    <stop offset="0.01" stop-color="#FFD500"/>
    <stop offset="1" stop-color="#E32B00"/>
    </linearGradient>
    <linearGradient id="paint1_linear_13_2398" x1="33.0153" y1="110.105" x2="43.4828" y2="102.212" gradientUnits="userSpaceOnUse">
    <stop stop-color="#B34E00"/>
    <stop offset="0.97" stop-color="#FF6F00"/>
    </linearGradient>
    <linearGradient id="paint2_linear_13_2398" x1="40.4006" y1="103.559" x2="40.4006" y2="105.146" gradientUnits="userSpaceOnUse">
    <stop stop-color="#753300"/>
    <stop offset="0.97" stop-color="#FF6F00"/>
    </linearGradient>
    <linearGradient id="paint3_linear_13_2398" x1="37.753" y1="110.103" x2="44.3453" y2="96.1305" gradientUnits="userSpaceOnUse">
    <stop stop-color="#753300"/>
    <stop offset="0.97" stop-color="#FF6F00"/>
    </linearGradient>
    <linearGradient id="paint4_linear_13_2398" x1="35.7787" y1="104.675" x2="38.896" y2="98.0439" gradientUnits="userSpaceOnUse">
    <stop stop-color="#753300"/>
    <stop offset="0.97" stop-color="#FF6F00"/>
    </linearGradient>
    <linearGradient id="paint5_linear_13_2398" x1="63.7797" y1="13.3707" x2="16.3603" y2="62.6793" gradientUnits="userSpaceOnUse">
    <stop stop-color="#FFE8DE"/>
    <stop offset="1" stop-color="#FFD1BD"/>
    </linearGradient>
    <linearGradient id="paint6_linear_13_2398" x1="40.0006" y1="36.9167" x2="40.0006" y2="97.5164" gradientUnits="userSpaceOnUse">
    <stop stop-color="#FFE8DE"/>
    <stop offset="1" stop-color="#CC6131"/>
    </linearGradient>
    <linearGradient id="paint7_linear_13_2398" x1="52.085" y1="28.4093" x2="64.8735" y2="12.4217" gradientUnits="userSpaceOnUse">
    <stop stop-color="#FFE8DE"/>
    <stop offset="1" stop-color="white"/>
    </linearGradient>
    <linearGradient id="paint8_linear_13_2398" x1="76.0625" y1="24.7573" x2="34.5106" y2="67.9651" gradientUnits="userSpaceOnUse">
    <stop stop-color="#CB2D00"/>
    <stop offset="0.78" stop-color="#FF3900"/>
    <stop offset="1" stop-color="#D12F00"/>
    </linearGradient>
    <linearGradient id="paint9_linear_13_2398" x1="54.7259" y1="5.97523" x2="17.5706" y2="86.8201" gradientUnits="userSpaceOnUse">
    <stop stop-color="#CB2D00"/>
    <stop offset="0.78" stop-color="#FF3900"/>
    <stop offset="1" stop-color="#D12F00"/>
    </linearGradient>
    <linearGradient id="paint10_linear_13_2398" x1="55.1645" y1="6.18072" x2="18.1354" y2="86.7523" gradientUnits="userSpaceOnUse">
    <stop stop-color="#CB2D00"/>
    <stop offset="0.78" stop-color="#FF3900"/>
    <stop offset="1" stop-color="#D12F00"/>
    </linearGradient>
    <linearGradient id="paint11_linear_13_2398" x1="39.6481" y1="92.9065" x2="39.6481" y2="-0.359612" gradientUnits="userSpaceOnUse">
    <stop stop-color="#CB2D00"/>
    <stop offset="0.78" stop-color="#FF3900"/>
    <stop offset="1" stop-color="#D12F00"/>
    </linearGradient>
    <linearGradient id="paint12_linear_13_2398" x1="34.5262" y1="92.8677" x2="34.5262" y2="-0.283135" gradientUnits="userSpaceOnUse">
    <stop stop-color="#CB2D00"/>
    <stop offset="0.78" stop-color="#FF3900"/>
    <stop offset="1" stop-color="#D12F00"/>
    </linearGradient>
    <linearGradient id="paint13_linear_13_2398" x1="70.8386" y1="22.7583" x2="29.5186" y2="65.7246" gradientUnits="userSpaceOnUse">
    <stop stop-color="#CB2D00"/>
    <stop offset="0.78" stop-color="#FF3900"/>
    <stop offset="1" stop-color="#D12F00"/>
    </linearGradient>
    <linearGradient id="paint14_linear_13_2398" x1="71.8133" y1="23.151" x2="30.8838" y2="65.7126" gradientUnits="userSpaceOnUse">
    <stop stop-color="#CB2D00"/>
    <stop offset="0.78" stop-color="#FF3900"/>
    <stop offset="1" stop-color="#D12F00"/>
    </linearGradient>
    <linearGradient id="paint15_linear_13_2398" x1="59.2788" y1="97.4764" x2="59.2788" y2="-5.97412" gradientUnits="userSpaceOnUse">
    <stop stop-color="#CB2D00"/>
    <stop offset="0.78" stop-color="#FF3900"/>
    <stop offset="1" stop-color="#D12F00"/>
    </linearGradient>
    <linearGradient id="paint16_linear_13_2398" x1="54.625" y1="38.1702" x2="30.3746" y2="50.6365" gradientUnits="userSpaceOnUse">
    <stop stop-color="#FFE8DE"/>
    <stop offset="1" stop-color="#FFD1BD"/>
    </linearGradient>
    <linearGradient id="paint17_linear_13_2398" x1="33.3213" y1="41.7937" x2="16.2025" y2="50.593" gradientUnits="userSpaceOnUse">
    <stop stop-color="#CB2D00"/>
    <stop offset="0.78" stop-color="#FF3900"/>
    <stop offset="1" stop-color="#D12F00"/>
    </linearGradient>
    <linearGradient id="paint18_linear_13_2398" x1="21.4567" y1="95.2696" x2="21.4567" y2="-1.13022" gradientUnits="userSpaceOnUse">
    <stop stop-color="#CB2D00"/>
    <stop offset="0.78" stop-color="#FF3900"/>
    <stop offset="1" stop-color="#D12F00"/>
    </linearGradient>
    <linearGradient id="paint19_linear_13_2398" x1="33.1354" y1="87.0465" x2="32.8796" y2="87.1774" gradientUnits="userSpaceOnUse">
    <stop stop-color="#FFE8DE"/>
    <stop offset="1" stop-color="#FFD1BD"/>
    </linearGradient>
    <linearGradient id="paint20_linear_13_2398" x1="35.4114" y1="26.4605" x2="17.5183" y2="35.6594" gradientUnits="userSpaceOnUse">
    <stop stop-color="#FFE8DE"/>
    <stop offset="1" stop-color="#FFD1BD"/>
    </linearGradient>
    <linearGradient id="paint21_linear_13_2398" x1="12.1933" y1="53.533" x2="7.78724" y2="54.8162" gradientUnits="userSpaceOnUse">
    <stop stop-color="#FFE8DE"/>
    <stop offset="1" stop-color="white"/>
    </linearGradient>
    <linearGradient id="paint22_linear_13_2398" x1="41.5542" y1="24.7667" x2="48.0379" y2="-0.000541172" gradientUnits="userSpaceOnUse">
    <stop stop-color="#FFE8DE"/>
    <stop offset="1" stop-color="white"/>
    </linearGradient>
    </defs>
    </svg>
    