<svg width="70" height="103" viewBox="0 0 70 103" fill="none" xmlns="http://www.w3.org/2000/svg">
    <path d="M34.3486 85.6311C30.4761 86.2523 31.7238 82.3487 33.0309 82.0269C34.338 81.705 34.7395 81.2891 34.7395 81.2891C34.7395 81.2891 34.9757 82.7742 36.3548 82.8373C37.7339 82.8993 38.1354 85.6482 36.8389 85.6814C35.5424 85.7145 35.2553 85.4857 34.3486 85.6311Z" fill="url(#paint0_linear_13_2702)"/>
    <path d="M26.1226 91.8504L25.5041 91.226C27.2656 89.45 30.1212 86.2724 30.2833 85.3037C30.4093 84.551 28.203 82.1453 26.0856 80.3479L25.1831 79.5813L44.9452 79.3654L43.8181 80.1812C42.0397 81.4685 39.2666 83.9896 39.3948 85.2748C39.5516 86.8209 41.8893 89.9408 42.7769 91.0143L42.1054 91.5799C41.9677 91.4141 38.7402 87.4966 38.5241 85.3646C38.3589 83.7277 40.7782 81.4834 42.2547 80.2785L27.5198 80.4388C29.0165 81.7989 31.3605 84.1618 31.1445 85.4512C30.8871 86.9823 26.9139 91.0495 26.1205 91.8504H26.1226Z" fill="#5A8494"/>
    <g opacity="0.4">
    <path d="M26.1216 91.226C27.8831 89.4501 30.7388 86.2725 30.9008 85.3038C31.0269 84.5511 28.8205 82.1454 26.7031 80.348L25.8006 79.5814L44.9356 79.3719L44.9452 79.3644L25.1831 79.5804L26.0856 80.347C28.203 82.1443 30.4093 84.55 30.2833 85.3027C30.1212 86.2714 27.2656 89.448 25.5041 91.225L26.1226 91.8494C26.1926 91.7788 26.3144 91.6537 26.4298 91.5361L26.1216 91.225V91.226Z" fill="#3C5963"/>
    <path d="M39.1438 85.3658C38.9786 83.7288 41.3979 81.4846 42.8744 80.2796L42.2484 80.286C40.7718 81.4931 38.3621 83.731 38.5263 85.3658C38.7413 87.4977 41.9698 91.4153 42.1075 91.581L42.4751 91.2709C41.7008 90.298 39.3281 87.1877 39.1438 85.3658Z" fill="#3C5963"/>
    </g>
    <path style="mix-blend-mode:multiply" opacity="0.4" d="M43.8924 90.4468H25.6768C22.926 90.4468 26.3568 102.814 30.4677 102.814H39.1015C43.2123 102.814 46.6432 90.4468 43.8924 90.4468Z" fill="url(#paint1_linear_13_2702)"/>
    <path d="M43.8924 90.4468H25.6768C22.926 90.4468 26.3568 102.814 30.4677 102.814H39.1015C43.2123 102.814 46.6432 90.4468 43.8924 90.4468Z" fill="url(#paint2_linear_13_2702)"/>
    <path style="mix-blend-mode:multiply" opacity="0.5" d="M24.948 94.5684H44.6211C44.7397 93.9911 44.8139 93.4522 44.8488 92.9529H24.7203C24.7552 93.4522 24.8294 93.9911 24.948 94.5684Z" fill="url(#paint3_linear_13_2702)"/>
    <path opacity="0.3" d="M32.7398 90.4468H25.6758C25.2309 90.4468 24.9619 90.7954 24.8178 91.3386H44.7504C44.6064 90.7954 44.3373 90.4468 43.8924 90.4468H32.7398Z" fill="#FFDF66"/>
    <path style="mix-blend-mode:multiply" opacity="0.2" d="M28.2539 90.4468H25.6768C22.926 90.4468 26.3568 102.814 30.4677 102.814H39.1015C40.6066 102.814 42.0175 101.151 43.0704 99.0485C34.8264 102.352 27.2572 96.5947 28.2539 90.4468Z" fill="url(#paint4_linear_13_2702)"/>
    <path style="mix-blend-mode:multiply" opacity="0.4" d="M25.987 93.4268C25.7222 93.4268 25.3197 93.9422 24.9691 94.6617C25.2837 96.1479 25.8525 97.7891 26.5908 99.2197C29.151 98.529 27.7252 93.4279 25.9881 93.4279L25.987 93.4268Z" fill="url(#paint5_linear_13_2702)"/>
    <path d="M26.6354 92.8204C25.7372 92.8204 23.2342 98.6935 26.6216 98.6935C30.009 98.6935 28.4996 92.8204 26.6354 92.8204Z" fill="url(#paint6_linear_13_2702)"/>
    <path style="mix-blend-mode:multiply" opacity="0.4" d="M31.5363 93.4268C30.6381 93.4268 28.1351 99.2999 31.5215 99.2999C34.9079 99.2999 33.3995 93.4268 31.5363 93.4268Z" fill="url(#paint7_linear_13_2702)"/>
    <path style="mix-blend-mode:multiply" opacity="0.4" d="M42.6361 93.4266C41.7378 93.4266 39.2349 99.2997 42.6223 99.2997C42.7441 99.2997 42.8468 99.2762 42.9559 99.2612C43.5671 98.0862 44.0713 96.7657 44.4071 95.4998C44.066 94.3707 43.3828 93.4255 42.6361 93.4255V93.4266Z" fill="url(#paint8_linear_13_2702)"/>
    <path style="mix-blend-mode:multiply" opacity="0.4" d="M37.0868 93.4268C36.1886 93.4268 33.6856 99.2999 37.073 99.2999C40.4605 99.2999 38.9511 93.4268 37.0868 93.4268Z" fill="url(#paint9_linear_13_2702)"/>
    <path d="M43.2843 92.8204C42.386 92.8204 39.8831 98.6935 43.2705 98.6935C46.6579 98.6935 45.1485 92.8204 43.2843 92.8204Z" fill="url(#paint10_linear_13_2702)"/>
    <path d="M37.7339 92.8204C36.8357 92.8204 34.3327 98.6935 37.7191 98.6935C41.1054 98.6935 39.5971 92.8204 37.7339 92.8204Z" fill="url(#paint11_linear_13_2702)"/>
    <path d="M32.1846 92.8204C31.2864 92.8204 28.7834 98.6935 32.1708 98.6935C35.5582 98.6935 34.0488 92.8204 32.1846 92.8204Z" fill="url(#paint12_linear_13_2702)"/>
    <g opacity="0.6">
    <path d="M39.3959 85.276C39.3938 85.2557 39.4065 85.229 39.4065 85.2087H38.5401C38.5401 85.26 38.522 85.3156 38.5273 85.3658C38.5708 85.7957 38.7572 86.3067 38.9955 86.8371H39.6046C39.7158 86.8371 39.8228 86.8146 39.9192 86.7729C39.6385 86.2094 39.4383 85.6866 39.397 85.2771L39.3959 85.276Z" fill="#3C5963"/>
    <path d="M31.1307 85.2087H30.2675C30.2675 85.2375 30.2876 85.2792 30.2834 85.3049C30.2336 85.6 29.9169 86.1122 29.4752 86.7141C29.5949 86.7847 29.7262 86.8371 29.8755 86.8371H30.4549C30.8193 86.2928 31.0863 85.8021 31.1456 85.4525C31.1583 85.3787 31.135 85.2899 31.1307 85.2087Z" fill="#3C5963"/>
    </g>
    <path d="M39.6036 86.465H29.8756C29.4307 86.465 29.0695 86.1004 29.0695 85.6513C29.0695 85.2022 29.4307 84.8376 29.8756 84.8376H39.6036C40.0484 84.8376 40.4096 85.2022 40.4096 85.6513C40.4096 86.1004 40.0484 86.465 39.6036 86.465Z" fill="#5A8494"/>
    <path opacity="0.4" d="M29.759 85.1007H39.4869C39.9318 85.1007 40.293 85.4653 40.293 85.9143C40.293 85.9817 40.2708 86.0426 40.2549 86.1046C40.3449 85.9731 40.4095 85.8224 40.4095 85.6513C40.4095 85.2022 40.0483 84.8376 39.6035 84.8376H29.8755C29.4973 84.8376 29.1944 85.106 29.1075 85.461C29.2527 85.2482 29.4836 85.1007 29.759 85.1007Z" fill="#74ABBF"/>
    <path opacity="0.4" d="M29.0695 85.6513C29.0695 86.1004 29.4307 86.4649 29.8756 86.4649H39.6036C40.0484 86.4649 40.4096 86.1004 40.4096 85.6513C40.4096 85.6256 40.398 85.6042 40.3959 85.5797H29.0843C29.0822 85.6042 29.0706 85.6256 29.0706 85.6513H29.0695Z" fill="#3C5963"/>
    <path opacity="0.7" d="M44.9452 79.3664L25.1831 79.5824L26.0856 80.349C26.5675 80.7585 27.0516 81.2001 27.5145 81.6449H28.7781C28.3417 81.2012 27.9043 80.7863 27.5219 80.4388L42.2568 80.2785C41.8024 80.6495 41.2612 81.1253 40.7305 81.6449H42.0206C42.6392 81.09 43.2748 80.5757 43.8192 80.1812L44.9462 79.3654L44.9452 79.3664Z" fill="#3C5963"/>
    <path d="M43.1626 80.856C44.3553 80.856 45.4929 80.331 46.2524 79.4029C56.1032 67.3723 69.9717 46.1648 69.9717 35.3146C69.9706 15.8114 54.3078 6.10352e-05 34.9853 6.10352e-05C15.6628 6.10352e-05 0 15.8114 0 35.3146C0 46.1637 13.4628 67.3691 23.2819 79.3997C24.0414 80.3299 25.18 80.856 26.3738 80.856H43.1626Z" fill="url(#paint13_linear_13_2702)"/>
    <g opacity="0.4">
    <path d="M28.1828 80.8561C28.0917 80.7288 27.9868 80.5963 27.8968 80.4701C9.99051 55.267 3.5684 37.5376 7.07233 22.9836C8.77028 15.9301 12.8992 9.531 19.5479 3.66003C17.8415 4.51005 16.2135 5.48622 14.6787 6.59391C10.1356 11.5603 7.18673 16.8967 5.79596 22.6714C2.21258 37.5568 8.62411 55.5193 26.5611 80.8571H28.1817L28.1828 80.8561Z" fill="url(#paint14_linear_13_2702)"/>
    <path d="M55.6677 26.8304C55.637 41.9488 49.9161 61.0543 39.5611 80.626L39.4403 80.8548H40.9222C51.2444 61.2318 56.9483 42.0611 56.9801 26.8336C56.9971 18.7889 54.0376 10.3134 50.1597 3.53148C49.4988 3.20858 48.8378 2.88889 48.1535 2.60876C52.3386 9.39817 55.6857 18.3548 55.6677 26.8304Z" fill="url(#paint15_linear_13_2702)"/>
    <path d="M33.5075 80.8559H34.912C32.9684 76.0499 28.4719 63.0591 26.8365 42.5241C25.2858 23.0679 26.8831 8.44559 31.2227 0.210632C30.6613 0.271577 30.1158 0.379565 29.5629 0.46617C25.4288 9.05931 23.9988 23.44 25.5283 42.631C27.115 62.5448 31.3901 75.4789 33.5075 80.8559Z" fill="url(#paint16_linear_13_2702)"/>
    <path d="M65.6255 22.6713C64.6277 18.5249 62.827 14.6042 60.2107 10.8845C58.3846 8.96419 56.3552 7.24919 54.1414 5.78333C59.4672 11.0673 62.8535 16.7704 64.3502 22.9835C67.8542 37.5385 61.431 55.2679 43.5268 80.47C43.4389 80.5929 43.3361 80.7234 43.2482 80.8463C43.9908 80.8303 44.6973 80.5993 45.3116 80.2069C62.8938 55.2155 69.1782 37.4273 65.6255 22.6713Z" fill="url(#paint17_linear_13_2702)"/>
    <path d="M21.8243 2.60685C17.6795 9.53631 14.4266 18.4128 14.4435 26.8349C14.4753 42.0666 20.1782 61.2373 30.5015 80.856H31.9833L31.8658 80.6315C21.5086 61.0609 15.7867 41.9544 15.7559 26.8306C15.7379 18.061 19.3213 8.77611 23.7086 1.90973C23.0742 2.12785 22.4418 2.35238 21.8243 2.60578V2.60685Z" fill="url(#paint18_linear_13_2702)"/>
    <path d="M41.9623 33.7173L41.8501 40.419C41.5567 59.7426 38.0347 74.5799 36.1641 80.8571H37.5168C39.4795 74.1618 42.8722 59.4903 43.1614 40.4393L43.2737 33.7408C43.5523 17.8814 43.7239 7.35194 41.5058 0.636315C41.0048 0.541156 40.4943 0.475935 39.9858 0.402161C42.4072 6.81307 42.2494 17.3468 41.9613 33.7173H41.9623Z" fill="url(#paint19_linear_13_2702)"/>
    </g>
    <path opacity="0.2" d="M33.8572 80.856C30.9305 74.073 25.788 44.39 25.6206 24.9798C25.4829 8.99314 28.8778 2.48066 30.438 0.332642C29.5302 0.452392 28.6246 0.580695 27.7401 0.768874C27.1713 2.05084 26.6205 3.37023 26.1068 4.76019C16.2358 31.4474 29.4995 72.8264 33.0384 80.8571H33.8583L33.8572 80.856Z" fill="url(#paint20_linear_13_2702)"/>
    <path opacity="0.4" d="M19.8552 69.8336C12.5116 59.1224 4.62136 40.5911 6.05238 26.2692C6.93365 17.4483 11.8019 10.2654 15.4149 6.03888C12.4936 8.03293 9.90162 10.4718 7.69948 13.2421C4.53874 20.4228 2.61623 28.5369 3.80151 36.8959C6.86586 58.5044 20.6941 75.4554 25.4607 80.748C25.7572 80.8164 26.0634 80.856 26.3727 80.856H27.7073C26.343 79.0683 23.9142 75.7538 19.8541 69.8325L19.8552 69.8336Z" fill="url(#paint21_linear_13_2702)"/>
    <path opacity="0.3" d="M31.8722 80.8559C25.1895 70.0805 15.8015 43.342 15.1183 29.4446C14.4754 16.3715 20.1751 6.12005 22.6685 2.29553C21.8328 2.61308 21.014 2.9595 20.21 3.33907C15.7274 9.51261 11.4777 18.6329 11.4979 31.0291C11.5318 52.1832 25.2403 73.4517 30.5174 80.8569H31.8732L31.8722 80.8559Z" fill="url(#paint22_linear_13_2702)"/>
    <path opacity="0.2" d="M37.0911 80.8559H39.183C40.5929 78.2214 43.6975 69.5053 46.1379 41.7917C47.8772 22.0425 45.4664 8.89781 42.8363 0.925876C42.2368 0.78688 41.6309 0.669268 41.0197 0.561279C42.2241 3.74107 43.7653 11.4553 42.8713 29.7022C41.8481 50.5773 38.6778 71.3977 37.0911 80.8569V80.8559Z" fill="url(#paint23_linear_13_2702)"/>
    <path opacity="0.3" d="M40.1088 80.856H40.9032C42.7547 78.6909 47.9852 71.5668 54.3882 54.0566C60.6017 37.0638 59.5584 16.9843 52.2571 4.62758C51.4097 4.1411 50.5369 3.69845 49.6471 3.28253C49.6471 3.2836 49.6493 3.28574 49.6503 3.28788C52.1289 7.18724 58.2513 18.371 55.5545 34.0433C53.3746 46.709 46.4822 69.0285 40.1088 80.8571V80.856Z" fill="url(#paint24_linear_13_2702)"/>
    <path opacity="0.3" d="M33.7587 2.09459C33.7587 2.09459 28.1437 11.8681 30.7621 42.429C33.3805 72.9898 37.5814 79.9108 37.5581 79.4296C37.5348 78.9496 37.8727 46.3914 37.3759 26.746C36.8792 7.10057 37.0878 1.50332 33.7587 2.09459Z" fill="url(#paint25_linear_13_2702)"/>
    <path opacity="0.4" d="M43.4357 69.5074C43.4357 69.5074 49.8695 40.9598 47.9745 25.5077C46.0796 10.0568 42.7335 5.8249 46.0743 5.29671C49.4151 4.76853 57.5235 18.8124 53.8067 36.3237C50.0888 53.8351 43.4368 69.5074 43.4368 69.5074H43.4357Z" fill="url(#paint26_linear_13_2702)"/>
    <path opacity="0.5" d="M49.0974 69.0659C49.0974 69.0659 59.6368 50.3036 59.4175 34.9253C59.1993 19.5471 56.4294 13.4409 55.9189 11.0865C55.4083 8.73213 65.0738 20.9937 63.7614 35.5626C62.449 50.1315 49.0974 69.0659 49.0974 69.0659Z" fill="url(#paint27_linear_13_2702)"/>
    <path opacity="0.4" d="M23.2141 5.28308C23.2141 5.28308 17.2866 15.1336 16.8492 29.9227C16.4117 44.7119 27.4934 69.8754 27.4934 69.8754C27.4934 69.8754 20.029 39.4878 21.8286 24.4784C23.6282 9.46792 25.537 5.28094 23.2141 5.28308Z" fill="url(#paint28_linear_13_2702)"/>
    <path opacity="0.4" d="M14.4437 9.90947C14.4437 9.90947 6.40732 16.4016 7.73772 35.8086C9.06705 55.2156 22.5203 69.5076 22.5203 69.5076C22.5203 69.5076 11.4546 51.5547 11.8189 30.7321C12.1833 9.90947 18.0885 9.39412 14.4437 9.90947Z" fill="url(#paint29_linear_13_2702)"/>
    <path opacity="0.2" d="M34.9122 6.10352e-05C24.9989 6.10352e-05 16.0685 4.17955 9.70251 10.8674C15.8948 5.26586 24.0487 1.82946 33.0172 1.82946C52.3387 1.82946 68.0026 17.6407 68.0026 37.144C68.0026 47.7451 54.7728 68.2106 44.977 80.3663C45.4293 80.1246 45.8445 79.8103 46.1792 79.4019C56.0301 67.3713 69.8986 46.1637 69.8986 35.3135C69.8975 15.8114 54.2347 6.10352e-05 34.9122 6.10352e-05Z" fill="white"/>
    <path opacity="0.3" d="M34.9513 6.10352e-05C26.0358 6.10352e-05 17.9337 3.40011 11.7584 8.94497C17.8501 3.73156 25.717 0.568874 34.3296 0.568874C53.652 0.568874 69.3149 16.3802 69.3149 35.8834C69.3149 46.7336 55.4464 67.9411 45.5955 79.9717C45.5796 79.991 45.5595 80.0049 45.5426 80.0231C45.7873 79.8434 46.0192 79.6435 46.2162 79.4019C56.0671 67.3713 69.9356 46.1637 69.9356 35.3135C69.9367 15.8114 54.2728 6.10352e-05 34.9513 6.10352e-05Z" fill="white"/>
    <path opacity="0.2" d="M17.6267 4.68091C7.10426 10.77 0 22.1944 0 35.3145C0 46.1636 13.4628 67.369 23.2819 79.3996C24.0414 80.3298 25.18 80.8559 26.3738 80.8559H43.1626C44.3553 80.8559 45.4918 80.3309 46.2524 79.4028C49.4745 75.4671 53.1236 70.5445 56.5798 65.3279C24.3612 71.7035 -7.68789 42.353 17.6267 4.68091Z" fill="url(#paint30_linear_13_2702)"/>
    <path opacity="0.2" d="M45.1847 78.4278H28.3958C27.2021 78.4278 26.0634 77.9018 25.304 76.9716C15.4859 64.941 2.02313 43.7356 2.02313 32.8864C2.02313 24.8129 4.73688 17.3959 9.25344 11.4469C3.52618 17.7359 0 26.0992 0 35.3146C0 46.1637 13.4628 67.3691 23.2819 79.3997C24.0414 80.3299 25.18 80.856 26.3738 80.856H43.1626C44.3553 80.856 45.4929 80.331 46.2524 79.4029C46.7968 78.7379 47.3582 78.0344 47.9238 77.3159C47.1845 78.0183 46.2132 78.4278 45.1847 78.4278Z" fill="#6BFFE9"/>
    <defs>
    <linearGradient id="paint0_linear_13_2702" x1="35.6737" y1="82.7839" x2="31.9825" y2="88.0858" gradientUnits="userSpaceOnUse">
    <stop offset="0.01" stop-color="#FF9A00"/>
    <stop offset="1" stop-color="#F22E00"/>
    </linearGradient>
    <linearGradient id="paint1_linear_13_2702" x1="34.5574" y1="95.4132" x2="39.1153" y2="92.6244" gradientUnits="userSpaceOnUse">
    <stop stop-color="white"/>
    <stop offset="1" stop-color="#B84E0D"/>
    </linearGradient>
    <linearGradient id="paint2_linear_13_2702" x1="40.4456" y1="92.0271" x2="24.5187" y2="101.187" gradientUnits="userSpaceOnUse">
    <stop stop-color="#FF8033"/>
    <stop offset="0.95" stop-color="#E86211"/>
    </linearGradient>
    <linearGradient id="paint3_linear_13_2702" x1="34.784" y1="94.5321" x2="34.784" y2="92.9326" gradientUnits="userSpaceOnUse">
    <stop stop-color="white"/>
    <stop offset="1" stop-color="#B84E0D"/>
    </linearGradient>
    <linearGradient id="paint4_linear_13_2702" x1="40.8672" y1="89.693" x2="31.0393" y2="97.8811" gradientUnits="userSpaceOnUse">
    <stop stop-color="white"/>
    <stop offset="1" stop-color="#B84E0D"/>
    </linearGradient>
    <linearGradient id="paint5_linear_13_2702" x1="22.2458" y1="99.2358" x2="24.5565" y2="97.6213" gradientUnits="userSpaceOnUse">
    <stop stop-color="white"/>
    <stop offset="1" stop-color="#B84E0D"/>
    </linearGradient>
    <linearGradient id="paint6_linear_13_2702" x1="28.3503" y1="94.6049" x2="23.3226" y2="98.7018" gradientUnits="userSpaceOnUse">
    <stop stop-color="#F5A11B"/>
    <stop offset="0.95" stop-color="#E86211"/>
    </linearGradient>
    <linearGradient id="paint7_linear_13_2702" x1="28.6807" y1="99.5448" x2="30.6753" y2="97.6057" gradientUnits="userSpaceOnUse">
    <stop stop-color="white"/>
    <stop offset="1" stop-color="#B84E0D"/>
    </linearGradient>
    <linearGradient id="paint8_linear_13_2702" x1="38.9722" y1="99.1821" x2="40.9811" y2="97.699" gradientUnits="userSpaceOnUse">
    <stop stop-color="white"/>
    <stop offset="1" stop-color="#B84E0D"/>
    </linearGradient>
    <linearGradient id="paint9_linear_13_2702" x1="32.2652" y1="99.7479" x2="35.9571" y2="97.3472" gradientUnits="userSpaceOnUse">
    <stop stop-color="white"/>
    <stop offset="1" stop-color="#B84E0D"/>
    </linearGradient>
    <linearGradient id="paint10_linear_13_2702" x1="44.9991" y1="94.6049" x2="39.9725" y2="98.7018" gradientUnits="userSpaceOnUse">
    <stop stop-color="#F5A11B"/>
    <stop offset="0.95" stop-color="#E86211"/>
    </linearGradient>
    <linearGradient id="paint11_linear_13_2702" x1="39.4488" y1="94.6049" x2="34.4222" y2="98.7018" gradientUnits="userSpaceOnUse">
    <stop stop-color="#F5A11B"/>
    <stop offset="0.95" stop-color="#E86211"/>
    </linearGradient>
    <linearGradient id="paint12_linear_13_2702" x1="33.8995" y1="94.6049" x2="28.8729" y2="98.7018" gradientUnits="userSpaceOnUse">
    <stop stop-color="#F5A11B"/>
    <stop offset="0.95" stop-color="#E86211"/>
    </linearGradient>
    <linearGradient id="paint13_linear_13_2702" x1="7.39449" y1="57.9163" x2="71.7395" y2="17.2591" gradientUnits="userSpaceOnUse">
    <stop stop-color="#6590D6"/>
    <stop offset="1" stop-color="#6BFFE9"/>
    </linearGradient>
    <linearGradient id="paint14_linear_13_2702" x1="16.5122" y1="6.81951" x2="16.5122" y2="94.7043" gradientUnits="userSpaceOnUse">
    <stop stop-color="#6590D6"/>
    <stop offset="1" stop-color="#4B6FA1"/>
    </linearGradient>
    <linearGradient id="paint15_linear_13_2702" x1="48.2097" y1="6.81926" x2="48.2097" y2="94.7051" gradientUnits="userSpaceOnUse">
    <stop stop-color="#6590D6"/>
    <stop offset="1" stop-color="#4B6FA1"/>
    </linearGradient>
    <linearGradient id="paint16_linear_13_2702" x1="29.922" y1="6.81934" x2="29.922" y2="94.7052" gradientUnits="userSpaceOnUse">
    <stop stop-color="#6590D6"/>
    <stop offset="1" stop-color="#4B6FA1"/>
    </linearGradient>
    <linearGradient id="paint17_linear_13_2702" x1="54.9135" y1="6.81938" x2="54.9135" y2="94.7053" gradientUnits="userSpaceOnUse">
    <stop stop-color="#6590D6"/>
    <stop offset="1" stop-color="#4B6FA1"/>
    </linearGradient>
    <linearGradient id="paint18_linear_13_2702" x1="23.2129" y1="6.81948" x2="23.2129" y2="94.7054" gradientUnits="userSpaceOnUse">
    <stop stop-color="#6590D6"/>
    <stop offset="1" stop-color="#4B6FA1"/>
    </linearGradient>
    <linearGradient id="paint19_linear_13_2702" x1="39.8005" y1="6.81948" x2="39.8005" y2="94.7054" gradientUnits="userSpaceOnUse">
    <stop stop-color="#6590D6"/>
    <stop offset="1" stop-color="#4B6FA1"/>
    </linearGradient>
    <linearGradient id="paint20_linear_13_2702" x1="28.1893" y1="0.331572" x2="28.1893" y2="80.856" gradientUnits="userSpaceOnUse">
    <stop stop-color="#6590D6"/>
    <stop offset="1" stop-color="#4B6FA1"/>
    </linearGradient>
    <linearGradient id="paint21_linear_13_2702" x1="15.578" y1="6.03888" x2="15.578" y2="80.856" gradientUnits="userSpaceOnUse">
    <stop stop-color="#6590D6"/>
    <stop offset="1" stop-color="#4B6FA1"/>
    </linearGradient>
    <linearGradient id="paint22_linear_13_2702" x1="21.6845" y1="2.29446" x2="21.6845" y2="80.8559" gradientUnits="userSpaceOnUse">
    <stop stop-color="#6590D6"/>
    <stop offset="1" stop-color="#4B6FA1"/>
    </linearGradient>
    <linearGradient id="paint23_linear_13_2702" x1="41.9095" y1="0.561279" x2="41.9095" y2="80.8559" gradientUnits="userSpaceOnUse">
    <stop stop-color="#6590D6"/>
    <stop offset="1" stop-color="#4B6FA1"/>
    </linearGradient>
    <linearGradient id="paint24_linear_13_2702" x1="49.2849" y1="3.28253" x2="49.2849" y2="80.856" gradientUnits="userSpaceOnUse">
    <stop stop-color="#6590D6"/>
    <stop offset="1" stop-color="#4B6FA1"/>
    </linearGradient>
    <linearGradient id="paint25_linear_13_2702" x1="37.9193" y1="14.3016" x2="31.6828" y2="67.3749" gradientUnits="userSpaceOnUse">
    <stop stop-color="#6BFFE9"/>
    <stop offset="1" stop-color="#6BFFE9"/>
    </linearGradient>
    <linearGradient id="paint26_linear_13_2702" x1="50.0136" y1="15.6273" x2="44.7848" y2="60.1182" gradientUnits="userSpaceOnUse">
    <stop stop-color="#6BFFE9"/>
    <stop offset="1" stop-color="#6BFFE9"/>
    </linearGradient>
    <linearGradient id="paint27_linear_13_2702" x1="60.1208" y1="20.3511" x2="55.3366" y2="61.0633" gradientUnits="userSpaceOnUse">
    <stop stop-color="#6BFFE9"/>
    <stop offset="1" stop-color="#6BFFE9"/>
    </linearGradient>
    <linearGradient id="paint28_linear_13_2702" x1="26.038" y1="15.4437" x2="20.847" y2="59.616" gradientUnits="userSpaceOnUse">
    <stop stop-color="#6BFFE9"/>
    <stop offset="1" stop-color="#6BFFE9"/>
    </linearGradient>
    <linearGradient id="paint29_linear_13_2702" x1="18.4963" y1="19.2029" x2="13.7283" y2="59.7687" gradientUnits="userSpaceOnUse">
    <stop stop-color="#6BFFE9"/>
    <stop offset="1" stop-color="#6BFFE9"/>
    </linearGradient>
    <linearGradient id="paint30_linear_13_2702" x1="6.73988" y1="67.137" x2="55.3095" y2="17.8527" gradientUnits="userSpaceOnUse">
    <stop stop-color="#6590D6"/>
    <stop offset="1" stop-color="#4B6FA1"/>
    </linearGradient>
    </defs>
    </svg>
    