<svg width="68" height="100" viewBox="0 0 68 100" fill="none" xmlns="http://www.w3.org/2000/svg">
    <path d="M33.8079 84.3235C30.3245 84.3235 31.2085 81.5833 32.6762 81.0519C34.144 80.5216 34.144 79.4608 34.144 79.4608C34.144 79.4608 34.9221 81.3346 36.213 81.8125C37.504 82.2894 37.4156 84.3235 33.8079 84.3235V84.3235Z" fill="url(#paint0_linear_13_3574)"/>
    <g opacity="0.4">
    <path d="M33.9723 84.2145C30.8425 84.2145 31.2413 82.0067 32.4182 81.1732C31.118 81.905 30.5331 84.3245 33.8078 84.3245C35.0669 84.3245 35.8892 84.0748 36.3815 83.7315C35.8758 84.0172 35.0947 84.2145 33.9723 84.2145Z" fill="#FFF0D0"/>
    <path d="M34.2425 79.6736C34.1829 79.5503 34.1428 79.4609 34.1428 79.4609C34.1428 79.4609 34.1294 80.1793 33.3071 80.7303C33.9105 80.3921 34.1479 79.9635 34.2425 79.6736Z" fill="#FFF0D0"/>
    </g>
    <path style="mix-blend-mode:multiply" opacity="0.2" d="M36.955 82.9062C34.3186 84.4674 31.5229 82.5968 32.8776 81.8464C34.2384 81.093 34.1747 80.3561 34.1747 79.5338C34.1562 79.4917 34.1428 79.4608 34.1428 79.4608C34.1428 79.4608 34.1428 80.5216 32.6751 81.0519C31.2073 81.5823 30.3234 84.3235 33.8067 84.3235C35.9683 84.3235 36.8604 83.5938 36.955 82.9051V82.9062Z" fill="url(#paint1_linear_13_3574)"/>
    <path d="M42.7552 89.2088H25.4823L29.5638 83.8917L23.6702 77.7586L24.1296 77.3177L30.4015 83.8455L26.7732 88.5726H41.4334L37.7136 83.9092L42.9371 76.9929L43.4449 77.3773L38.5194 83.8989L42.7552 89.2088Z" fill="#587B8B"/>
    <path d="M43.8066 78.5285C53.3943 67.2808 67.9949 45.6128 67.9949 34.7485C67.9949 15.9996 52.7961 0.799866 34.0462 0.799866C15.2963 0.799866 0.0975342 15.9996 0.0975342 34.7485C0.0975342 45.6128 14.2746 67.2808 23.8613 78.5285H43.8066Z" fill="url(#paint2_linear_13_3574)"/>
    <path d="M32.2166 78.5283C32.2166 78.5283 26.3908 41.0028 25.842 27.6048C24.8768 3.99423 33.5333 0.813049 33.5333 0.813049C29.1537 0.877803 24.9745 1.76997 21.1468 3.3436C17.4712 8.96385 13.6846 16.7076 13.3187 24.9643C12.8356 35.8564 22.8633 62.8198 29.1434 78.5283H32.2166Z" fill="url(#paint3_linear_13_3574)"/>
    <path d="M30.3069 78.5284C27.5903 70.9923 22.78 57.6354 20.3964 47.691C17.1824 34.2838 10.043 16.6152 27.5687 1.42468C11.9188 4.44963 0.0975342 18.2155 0.0975342 34.7484C0.0975342 45.6127 14.2746 67.2807 23.8613 78.5284H30.3059H30.3069Z" fill="url(#paint4_linear_13_3574)"/>
    <path style="mix-blend-mode:multiply" opacity="0.3" d="M20.3965 47.6921C17.1824 34.2838 10.043 16.6152 27.5688 1.42468C26.8873 1.55625 26.2151 1.71556 25.5481 1.88824C8.69142 16.9739 15.7023 34.4195 18.8845 47.6921C21.2681 57.6354 26.0784 70.9933 28.795 78.5294H30.307C27.5904 70.9933 22.7801 57.6364 20.3965 47.6921V47.6921Z" fill="url(#paint5_linear_13_3574)"/>
    <path d="M27.283 78.5287C22.3915 71.5702 17.798 61.2969 13.146 51.0863C6.86486 37.2999 4.09996 18.6825 17.3879 5.17151C7.0694 10.9963 0.0975342 22.0549 0.0975342 34.7487C0.0975342 45.6131 14.2746 67.281 23.8613 78.5287H27.283Z" fill="url(#paint6_linear_13_3574)"/>
    <path style="mix-blend-mode:multiply" opacity="0.3" d="M13.1472 51.0874C6.86503 37.2999 4.10013 18.6825 17.3881 5.17151C16.426 5.71421 15.503 6.31755 14.6026 6.94865C3.18844 20.2808 5.96875 37.894 11.9796 51.0874C16.6316 61.2969 21.225 71.5713 26.1166 78.5298H27.2832C22.3916 71.5713 17.7982 61.298 13.1462 51.0874H13.1472Z" fill="url(#paint7_linear_13_3574)"/>
    <path d="M35.7443 78.5283C35.7443 78.5283 41.8137 39.4487 42.3215 26.0487C43.1304 4.7425 34.5643 0.813049 34.5643 0.813049C38.944 0.877803 43.1232 1.76997 46.9509 3.3436C50.6265 8.96385 54.413 16.7076 54.7789 24.9643C55.262 35.8564 45.2344 62.8198 38.9543 78.5283H35.7443V78.5283Z" fill="url(#paint8_linear_13_3574)"/>
    <path style="mix-blend-mode:multiply" opacity="0.3" d="M35.5685 0.851192C35.2345 0.836802 34.9015 0.817273 34.5643 0.812134C34.5643 0.812134 43.1304 4.74261 42.3215 26.0488C41.8127 39.4478 35.7443 78.5284 35.7443 78.5284H36.6724C36.6724 78.5284 42.7419 39.4488 43.2496 26.0488C44.0154 5.88454 36.3888 1.287 35.5685 0.851192Z" fill="url(#paint9_linear_13_3574)"/>
    <path d="M37.8658 78.5285C40.5824 70.9924 45.3177 57.6355 47.7012 47.6911C50.9153 34.2829 58.0537 16.6143 40.5289 1.42377C56.1789 4.44871 68.0001 18.2146 68.0001 34.7475C68.0001 45.6118 53.8231 67.2798 44.2364 78.5275H37.8658V78.5285Z" fill="url(#paint10_linear_13_3574)"/>
    <path d="M41.4149 78.5287C46.3064 71.5702 50.2945 61.2969 54.9465 51.0863C61.2287 37.2988 63.9936 18.6815 50.7056 5.17151C61.0241 10.9963 67.996 22.0549 67.996 34.7487C67.996 45.6131 53.8189 67.281 44.2322 78.5287H41.4159H41.4149Z" fill="url(#paint11_linear_13_3574)"/>
    <path style="mix-blend-mode:multiply" opacity="0.3" d="M53.1118 6.68347C52.3296 6.15104 51.532 5.63918 50.7046 5.17151C63.9926 18.6825 61.2277 37.2988 54.9455 51.0863C50.2935 61.2959 46.3055 71.5702 41.4139 78.5287H42.4264C47.3179 71.5702 51.3059 61.2969 55.9579 51.0863C62.0088 37.8056 64.7902 20.0454 53.1108 6.68244L53.1118 6.68347Z" fill="url(#paint12_linear_13_3574)"/>
    <path style="mix-blend-mode:multiply" opacity="0.4" d="M2.16669 43.812C6.44663 55.1265 16.5031 69.8956 23.8624 78.5285H43.8077C51.6265 69.355 62.7776 53.2528 66.6269 41.7307C42.6699 51.2146 18.9884 50.6328 2.16771 43.811L2.16669 43.812Z" fill="url(#paint13_linear_13_3574)"/>
    <path opacity="0.2" d="M30.9556 28.7944C7.05716 28.7944 -1.11934 5.17151 31.5877 5.17151C64.2947 5.17151 63.6019 28.7944 30.9556 28.7944Z" fill="url(#paint14_linear_13_3574)"/>
    <path opacity="0.1" d="M2.86869 25.9328L2.87075 25.9298C2.8913 25.8948 2.91083 25.8588 2.93139 25.8239C3.03931 25.643 3.15032 25.4652 3.26235 25.2874C3.3857 25.09 3.51109 24.8947 3.63855 24.7015C3.77216 24.498 3.90476 24.2945 4.04249 24.0951C4.05379 24.0786 4.06613 24.0622 4.07846 24.0447C4.20078 23.8679 4.3272 23.6932 4.4526 23.5184C4.61191 23.2974 4.7702 23.0765 4.93466 22.8606C5.03539 22.728 5.1392 22.5995 5.24198 22.469C5.28515 22.4145 5.32832 22.359 5.37149 22.3045C5.52875 22.1062 5.68498 21.9057 5.84738 21.7115C5.89466 21.655 5.94503 21.6005 5.99231 21.5439C6.5052 20.9365 7.03968 20.3486 7.59472 19.7812C7.63069 19.7442 7.66461 19.7062 7.70058 19.6702C7.94316 19.4245 8.19395 19.1861 8.44474 18.9486C8.54136 18.8561 8.63695 18.7626 8.73562 18.6721C8.98025 18.446 9.22899 18.2261 9.48081 18.0082C9.58976 17.9136 9.69769 17.818 9.80869 17.7245C10.0626 17.5097 10.3206 17.2989 10.5806 17.0924C10.6906 17.005 10.8016 16.9176 10.9126 16.8313C11.1819 16.6226 11.4532 16.4191 11.7287 16.2187C11.8305 16.1447 11.9332 16.0727 12.036 15.9998C12.3279 15.7932 12.6229 15.5886 12.922 15.3913C12.994 15.344 13.068 15.2988 13.1399 15.2515C14.7948 14.1805 16.5514 13.2544 18.3953 12.4958H18.3974C18.5916 12.4146 18.789 12.3396 18.9853 12.2625C19.0418 12.2409 19.0973 12.2173 19.1539 12.1957C19.5239 12.0549 19.898 11.9223 20.2742 11.7938C20.3575 11.7661 20.4397 11.7373 20.5229 11.7095C20.893 11.5872 21.265 11.4721 21.6402 11.3631C21.7265 11.3385 21.8129 11.3138 21.9002 11.2891C22.2826 11.1812 22.666 11.0795 23.0535 10.9859C23.1224 10.9695 23.1912 10.9541 23.2601 10.9386C23.6712 10.842 24.0844 10.7506 24.5017 10.6704C26.3416 10.3147 28.2379 10.1174 30.1744 10.0886H30.1754C30.3388 10.0866 30.4992 10.0763 30.6636 10.0763C30.8281 10.0763 30.9915 10.0866 31.156 10.0886C31.156 10.0886 31.1632 10.0886 31.1663 10.0886C33.1007 10.1184 34.994 10.3158 36.8317 10.6714H36.8307C36.8389 10.6714 36.8461 10.6735 36.8533 10.6755C37.2377 10.7506 37.6191 10.8348 37.9983 10.9232C38.1032 10.9479 38.209 10.9705 38.3129 10.9962C38.6675 11.0825 39.02 11.1761 39.3705 11.2737C39.4949 11.3087 39.6193 11.3436 39.7436 11.3796C40.0828 11.4793 40.4199 11.5831 40.754 11.6931C40.8814 11.7352 41.0089 11.7794 41.1363 11.8226C41.4683 11.9367 41.7993 12.0539 42.1272 12.1782C42.2444 12.2235 42.3605 12.2707 42.4777 12.316C42.5681 12.3519 42.6596 12.3869 42.7501 12.4229C42.8128 12.4475 42.8765 12.4701 42.9382 12.4948V12.4969C43.1201 12.5709 43.3 12.6459 43.4788 12.724C43.5538 12.7569 43.6278 12.7919 43.7029 12.8258C44.8058 13.313 45.8757 13.8608 46.9087 14.4642C47.0156 14.5269 47.1246 14.5854 47.2315 14.6492C47.4895 14.8044 47.7423 14.9657 47.9962 15.1281C48.1565 15.2309 48.3189 15.3317 48.4772 15.4365C48.7085 15.5896 48.9346 15.7479 49.1618 15.9062C49.3385 16.0296 49.5143 16.1539 49.689 16.2804C49.8998 16.4345 50.1084 16.5918 50.316 16.7511C50.501 16.8929 50.683 17.0368 50.8649 17.1828C51.0581 17.338 51.2503 17.4942 51.4405 17.6536C51.6337 17.816 51.8239 17.9825 52.013 18.15C52.1846 18.3021 52.3573 18.4522 52.5259 18.6074C52.7397 18.8037 52.9483 19.0062 53.156 19.2087C53.2937 19.3423 53.4345 19.4739 53.5702 19.6106C53.8857 19.9282 54.1951 20.2519 54.4973 20.5829C54.522 20.6096 54.5477 20.6343 54.5713 20.661C54.9043 21.0269 55.2271 21.4011 55.5426 21.7824C55.6166 21.8718 55.6875 21.9643 55.7605 22.0548C55.8479 22.1627 55.9353 22.2717 56.0216 22.3806C56.0247 22.3847 56.0278 22.3878 56.0308 22.3919C56.1768 22.5769 56.3217 22.7609 56.4636 22.948C56.5509 23.0631 56.6342 23.1813 56.7195 23.2974C56.9292 23.5832 57.1358 23.871 57.3362 24.1639C57.4205 24.2873 57.5017 24.4106 57.5849 24.535C57.7823 24.832 57.9745 25.1311 58.1616 25.4354C58.2356 25.5556 58.3096 25.6759 58.3815 25.7972C58.5748 26.1189 58.7608 26.4447 58.9427 26.7726C59.0013 26.8785 59.0609 26.9833 59.1175 27.0892C59.3189 27.4633 59.5121 27.8426 59.6992 28.2249C59.73 28.2876 59.7619 28.3493 59.7917 28.412C60.2851 29.4388 60.7229 30.4954 61.1074 31.5788C61.1166 31.6035 61.1248 31.6291 61.1331 31.6538C61.2595 32.0146 61.3828 32.3774 61.4969 32.7433C61.5062 32.7721 61.5134 32.8009 61.5226 32.8297C61.6645 33.2881 61.795 33.7506 61.9163 34.2162C61.9358 34.2913 61.9533 34.3673 61.9728 34.4424C62.0776 34.8576 62.1743 35.2759 62.2637 35.6974C62.2709 35.7292 62.2781 35.7601 62.2842 35.7919C62.2986 35.8608 62.311 35.9297 62.3243 35.9985C62.4107 36.4292 62.4878 36.8629 62.5566 37.3008C62.57 37.3851 62.5833 37.4683 62.5967 37.5526C62.6656 38.0162 62.7252 38.4818 62.7745 38.9515C62.7797 39.005 62.7869 39.0584 62.792 39.1119C62.8228 39.4161 62.8465 39.7214 62.8691 40.0277C62.8732 40.0934 62.8773 40.1582 62.8824 40.224C62.9287 40.9322 62.9606 41.6455 62.9606 42.366C62.9606 44.2315 62.5165 46.4342 61.7426 48.8507C64.4992 43.2787 66.3247 38.0912 66.3247 34.2933C66.3247 33.5728 66.2928 32.8605 66.2466 32.1513C66.2425 32.0855 66.2384 32.0197 66.2332 31.955C66.2116 31.6487 66.187 31.3434 66.1561 31.0392C66.151 30.9857 66.1438 30.9323 66.1387 30.8788C66.0893 30.4091 66.0307 29.9435 65.9608 29.4799C65.9485 29.3956 65.9341 29.3124 65.9208 29.2281C65.8519 28.7913 65.7748 28.3575 65.6885 27.9258C65.6751 27.857 65.6628 27.7881 65.6484 27.7192C65.6422 27.6874 65.634 27.6555 65.6278 27.6236C65.5394 27.2022 65.4418 26.7839 65.3369 26.3697C65.3174 26.2946 65.2999 26.2186 65.2804 26.1435C65.1591 25.6769 65.0276 25.2144 64.8867 24.757C64.8775 24.7282 64.8703 24.6994 64.861 24.6706C64.747 24.3037 64.6236 23.9419 64.4972 23.5801C64.4879 23.5554 64.4797 23.5297 64.4715 23.5051C64.0871 22.4217 63.6492 21.3651 63.1559 20.3383C63.126 20.2756 63.0932 20.2139 63.0633 20.1522C62.8763 19.7689 62.683 19.3906 62.4816 19.0154C62.424 18.9086 62.3644 18.8037 62.3069 18.6989C62.1249 18.37 61.9389 18.0441 61.7457 17.7234C61.6727 17.6022 61.5997 17.4819 61.5257 17.3616C61.3386 17.0584 61.1454 16.7583 60.9491 16.4613C60.8668 16.3369 60.7846 16.2125 60.7003 16.0902C60.4999 15.7973 60.2933 15.5095 60.0847 15.2237C59.9993 15.1076 59.9151 14.9894 59.8287 14.8743C59.6869 14.6862 59.542 14.5022 59.396 14.3182C59.3929 14.3141 59.3898 14.311 59.3868 14.3069C59.3004 14.1979 59.2141 14.089 59.1257 13.9811C59.0527 13.8906 58.9818 13.7981 58.9078 13.7087C58.5922 13.3274 58.2695 12.9532 57.9365 12.5873C57.9118 12.5606 57.8861 12.5349 57.8625 12.5092C57.5603 12.1793 57.2509 11.8545 56.9353 11.5369C56.7997 11.4002 56.6599 11.2696 56.5211 11.135C56.3125 10.9325 56.1048 10.731 55.8911 10.5337C55.7225 10.3785 55.5498 10.2274 55.3782 10.0763C55.189 9.90978 54.9989 9.74327 54.8056 9.58087C54.6165 9.42155 54.4243 9.26532 54.2301 9.11011C54.0492 8.96416 53.8662 8.82129 53.6812 8.67945C53.4736 8.52013 53.2649 8.36287 53.0542 8.2087C52.8805 8.08124 52.7037 7.9579 52.5279 7.83456C52.3008 7.67627 52.0747 7.51798 51.8434 7.36484C51.6851 7.26 51.5227 7.15927 51.3624 7.05648C51.1085 6.89511 50.8556 6.73271 50.5977 6.57751C50.4918 6.51378 50.3828 6.45417 50.2749 6.3925C49.2409 5.78915 48.1719 5.24234 47.0691 4.75411C46.994 4.72122 46.92 4.68525 46.845 4.65236C46.6662 4.57527 46.4863 4.50023 46.3054 4.4252C46.3054 4.4252 46.3044 4.42315 46.3033 4.42315C46.2417 4.39745 46.1769 4.37587 46.1152 4.35017C46.0248 4.31317 45.9343 4.27822 45.8428 4.24327C45.7257 4.19702 45.6095 4.14974 45.4924 4.10554C45.1645 3.98117 44.8345 3.864 44.5015 3.74991C44.3741 3.70571 44.2466 3.66254 44.1192 3.6204C43.7851 3.51042 43.448 3.40661 43.1088 3.30691C42.9844 3.27093 42.86 3.23599 42.7357 3.20104C42.3852 3.10339 42.0337 3.00986 41.678 2.92352C41.5732 2.89783 41.4683 2.87521 41.3635 2.85054C40.9842 2.76215 40.6029 2.67787 40.2185 2.60283C40.2113 2.60181 40.2031 2.59975 40.1959 2.59769H40.1969C38.3591 2.24309 36.4669 2.04574 34.5314 2.01594C34.5283 2.01594 34.5242 2.01594 34.5211 2.01594C34.3567 2.01388 34.1933 2.0036 34.0288 2.0036C33.8644 2.0036 33.704 2.01388 33.5406 2.01594H33.5396C31.6021 2.04471 29.7067 2.24206 27.8669 2.59769C27.4496 2.67889 27.0364 2.76934 26.6252 2.86596C26.5564 2.88241 26.4875 2.8968 26.4187 2.91324C26.0312 3.00678 25.6467 3.10853 25.2644 3.21646C25.178 3.24113 25.0907 3.26477 25.0043 3.29046C24.6292 3.39941 24.2561 3.51453 23.8871 3.63685C23.8038 3.6646 23.7216 3.69235 23.6383 3.72113C23.2621 3.84858 22.888 3.98117 22.518 4.12302C22.4615 4.1446 22.4059 4.16721 22.3494 4.18983C22.1531 4.26589 21.9558 4.34195 21.7615 4.42212H21.7594C19.9145 5.1817 18.1589 6.10778 16.5041 7.1788C16.4311 7.22608 16.3581 7.2713 16.2862 7.31858C15.9871 7.51593 15.6931 7.71944 15.4002 7.92707C15.2974 8.00004 15.1946 8.07199 15.0928 8.146C14.8174 8.3454 14.546 8.54994 14.2767 8.75859C14.1657 8.84493 14.0547 8.9323 13.9447 9.01966C13.6847 9.22729 13.4267 9.43697 13.1728 9.65179C13.0628 9.74532 12.9539 9.84091 12.8449 9.93547C12.5941 10.1544 12.3444 10.3733 12.0998 10.5995C12.0011 10.6899 11.9065 10.7845 11.8089 10.876C11.5581 11.1144 11.3083 11.3518 11.0647 11.5975C11.0287 11.6335 10.9948 11.6715 10.9589 11.7085C10.4028 12.2759 9.86934 12.8638 9.35541 13.4713C9.30813 13.5278 9.25777 13.5823 9.21049 13.6388C9.04809 13.8331 8.89288 14.0335 8.7346 14.2319C8.69143 14.2863 8.64826 14.3408 8.60509 14.3963C8.5023 14.5269 8.39849 14.6564 8.29776 14.7879C8.13331 15.0048 7.97502 15.2258 7.8157 15.4468C7.69031 15.6215 7.56388 15.7962 7.44157 15.973C7.43026 15.9895 7.41793 16.0059 7.40559 16.0234C7.26786 16.2238 7.13424 16.4263 7.00165 16.6298C6.8742 16.8241 6.7488 17.0194 6.62546 17.2157C6.51445 17.3935 6.40242 17.5713 6.29449 17.7522C6.27394 17.7872 6.25441 17.8231 6.23385 17.8581L6.2318 17.8612C6.10743 18.0709 5.98717 18.2816 5.86794 18.4943C5.74871 18.7071 5.62948 18.9188 5.51436 19.1336C5.44036 19.2714 5.36943 19.4101 5.29749 19.5489C5.2574 19.627 5.21937 19.7072 5.17928 19.7853C5.17209 19.7997 5.16489 19.8151 5.15667 19.8295C5.05389 20.033 4.95007 20.2355 4.8514 20.4421C4.72189 20.7145 4.60061 20.991 4.47829 21.2675C4.45363 21.323 4.42793 21.3774 4.40326 21.4329C4.38168 21.4823 4.35804 21.5316 4.33645 21.5809C4.30664 21.6498 4.27581 21.7187 4.246 21.7875C4.05893 22.2326 3.88112 22.6838 3.71358 23.1392C3.67863 23.2347 3.6478 23.3314 3.61285 23.428C3.57482 23.5328 3.5409 23.6397 3.5039 23.7456C3.41036 24.0159 3.3158 24.2852 3.22946 24.5596C3.16985 24.7488 3.1164 24.9399 3.05987 25.1311C3.03109 25.2267 3.00231 25.3213 2.97456 25.4179C2.95297 25.4939 2.9283 25.569 2.90672 25.6461C2.8728 25.7674 2.84197 25.8886 2.8101 26.0099C2.80702 26.0212 2.80394 26.0336 2.80188 26.0449C2.82346 26.0079 2.84402 25.9709 2.86561 25.9339L2.86869 25.9328Z" fill="#FFF6AD"/>
    <path d="M26.2683 87.6937C22.2926 87.6937 26.1995 99.0626 29.2501 99.0626H39.6807C41.724 99.0626 46.0615 87.6937 41.5113 87.6937H26.2683Z" fill="url(#paint15_linear_13_3574)"/>
    <path style="mix-blend-mode:multiply" opacity="0.4" d="M26.2683 87.6937C22.2926 87.6937 26.1995 99.0626 29.2501 99.0626H39.6807C41.724 99.0626 46.0615 87.6937 41.5113 87.6937H26.2683Z" fill="url(#paint16_linear_13_3574)"/>
    <path opacity="0.1" d="M41.5106 87.694H26.2687C25.5523 87.694 25.0949 88.0671 24.8389 88.6725C24.9715 88.6386 25.1123 88.6149 25.2696 88.6149H40.5125C44.2385 88.6149 42.0049 96.2364 39.9513 98.9972C42.0748 98.1184 45.8696 87.694 41.5106 87.694V87.694Z" fill="#FFE373"/>
    <path style="mix-blend-mode:multiply" d="M24.6333 91.0405H43.4891C43.5302 90.4875 43.5189 89.9695 43.4387 89.5152H24.624C24.5665 89.9695 24.5747 90.4875 24.6333 91.0405Z" fill="url(#paint17_linear_13_3574)"/>
    <path style="mix-blend-mode:multiply" opacity="0.2" d="M41.0181 96.6659C30.4056 99.4226 24.6723 93.2771 28.0961 87.6929H26.2675C22.2918 87.6929 26.1987 99.0619 29.2493 99.0619H39.6799C40.313 99.0619 41.1661 97.9703 41.9072 96.4635C41.6112 96.522 41.3152 96.5878 41.0181 96.6649V96.6659Z" fill="url(#paint18_linear_13_3574)"/>
    <path opacity="0.3" d="M39.9121 98.7217H29.4816C26.9284 98.7217 23.7791 90.762 25.1492 88.1647C23.2384 90.3077 26.5738 99.0629 29.2503 99.0629H39.6809C40.1331 99.0629 40.6974 98.5048 41.2535 97.6383C40.7745 98.3064 40.3017 98.7217 39.9121 98.7217V98.7217Z" fill="#FFE4A2"/>
    <path d="M29.7385 83.4796H38.359C38.6294 83.4796 38.8493 83.6996 38.8493 83.9699V84.121C38.8493 84.3913 38.6294 84.6113 38.359 84.6113H29.7385C29.4682 84.6113 29.2482 84.3913 29.2482 84.121V83.9699C29.2482 83.6996 29.4682 83.4796 29.7385 83.4796Z" fill="#587B8B"/>
    <defs>
    <linearGradient id="paint0_linear_13_3574" x1="34.9128" y1="81.9184" x2="30.8991" y2="85.8961" gradientUnits="userSpaceOnUse">
    <stop offset="0.01" stop-color="#FF9A00"/>
    <stop offset="1" stop-color="#BF2400"/>
    </linearGradient>
    <linearGradient id="paint1_linear_13_3574" x1="34.9117" y1="81.9163" x2="30.8979" y2="85.8951" gradientUnits="userSpaceOnUse">
    <stop offset="0.01" stop-color="#FF9A00"/>
    <stop offset="1" stop-color="#BF2400"/>
    </linearGradient>
    <linearGradient id="paint2_linear_13_3574" x1="34.0462" y1="5.53823" x2="34.0462" y2="69.466" gradientUnits="userSpaceOnUse">
    <stop offset="0.35" stop-color="#FF7925"/>
    <stop offset="0.9" stop-color="#FF4F25"/>
    </linearGradient>
    <linearGradient id="paint3_linear_13_3574" x1="23.4183" y1="-2.09986" x2="23.4183" y2="81.6221" gradientUnits="userSpaceOnUse">
    <stop stop-color="#FF9A25"/>
    <stop offset="0.2" stop-color="#FFD425"/>
    <stop offset="1" stop-color="#FF9D25"/>
    </linearGradient>
    <linearGradient id="paint4_linear_13_3574" x1="15.2017" y1="5.53811" x2="15.2017" y2="69.4659" gradientUnits="userSpaceOnUse">
    <stop offset="0.35" stop-color="#FF7925"/>
    <stop offset="0.9" stop-color="#FF4F25"/>
    </linearGradient>
    <linearGradient id="paint5_linear_13_3574" x1="22.5036" y1="5.53811" x2="22.5036" y2="69.4659" gradientUnits="userSpaceOnUse">
    <stop offset="0.35" stop-color="#FF7925"/>
    <stop offset="0.9" stop-color="#FF4F25"/>
    </linearGradient>
    <linearGradient id="paint6_linear_13_3574" x1="13.6908" y1="-2.09946" x2="13.6908" y2="81.6225" gradientUnits="userSpaceOnUse">
    <stop stop-color="#FF9A25"/>
    <stop offset="0.2" stop-color="#FFD425"/>
    <stop offset="1" stop-color="#FF9D25"/>
    </linearGradient>
    <linearGradient id="paint7_linear_13_3574" x1="17.0201" y1="-2.09946" x2="17.0201" y2="81.6225" gradientUnits="userSpaceOnUse">
    <stop offset="0.35" stop-color="#FF7925"/>
    <stop offset="0.9" stop-color="#FF4F25"/>
    </linearGradient>
    <linearGradient id="paint8_linear_13_3574" x1="44.6804" y1="0.799687" x2="44.6804" y2="0.799687" gradientUnits="userSpaceOnUse">
    <stop stop-color="#FF9A25"/>
    <stop offset="0.2" stop-color="#FFD425"/>
    <stop offset="1" stop-color="#FF9D25"/>
    </linearGradient>
    <linearGradient id="paint9_linear_13_3574" x1="52.7603" y1="29.2454" x2="48.2254" y2="32.0031" gradientUnits="userSpaceOnUse">
    <stop offset="0.35" stop-color="#FF7925"/>
    <stop offset="0.9" stop-color="#FF4F25"/>
    </linearGradient>
    <linearGradient id="paint10_linear_13_3574" x1="52.933" y1="5.53823" x2="52.933" y2="69.466" gradientUnits="userSpaceOnUse">
    <stop offset="0.35" stop-color="#FF7925"/>
    <stop offset="0.9" stop-color="#FF4F25"/>
    </linearGradient>
    <linearGradient id="paint11_linear_13_3574" x1="54.7049" y1="-2.09946" x2="54.7049" y2="81.6225" gradientUnits="userSpaceOnUse">
    <stop stop-color="#FF9A25"/>
    <stop offset="0.2" stop-color="#FFD425"/>
    <stop offset="1" stop-color="#FF9D25"/>
    </linearGradient>
    <linearGradient id="paint12_linear_13_3574" x1="41.415" y1="41.8501" x2="61.1845" y2="41.8501" gradientUnits="userSpaceOnUse">
    <stop offset="0.35" stop-color="#FF7925"/>
    <stop offset="0.9" stop-color="#FF4F25"/>
    </linearGradient>
    <linearGradient id="paint13_linear_13_3574" x1="34.3958" y1="51.5116" x2="34.3958" y2="80.5205" gradientUnits="userSpaceOnUse">
    <stop stop-color="white"/>
    <stop offset="1" stop-color="#9C1D00"/>
    </linearGradient>
    <linearGradient id="paint14_linear_13_3574" x1="32.8663" y1="26.3893" x2="32.8663" y2="5.69879" gradientUnits="userSpaceOnUse">
    <stop stop-color="white"/>
    <stop offset="1" stop-color="#FFD696"/>
    </linearGradient>
    <linearGradient id="paint15_linear_13_3574" x1="44.1302" y1="85.6616" x2="15.993" y2="104.881" gradientUnits="userSpaceOnUse">
    <stop stop-color="#FAA662"/>
    <stop offset="1" stop-color="#9E6226"/>
    </linearGradient>
    <linearGradient id="paint16_linear_13_3574" x1="34.0481" y1="92.2686" x2="34.0481" y2="98.2106" gradientUnits="userSpaceOnUse">
    <stop stop-color="#FAA662"/>
    <stop offset="1" stop-color="#9E6226"/>
    </linearGradient>
    <linearGradient id="paint17_linear_13_3574" x1="34.0483" y1="91.7148" x2="34.0483" y2="88.8163" gradientUnits="userSpaceOnUse">
    <stop stop-color="#FAA662"/>
    <stop offset="1" stop-color="#9E6226"/>
    </linearGradient>
    <linearGradient id="paint18_linear_13_3574" x1="42.7881" y1="84.9115" x2="29.644" y2="96.0832" gradientUnits="userSpaceOnUse">
    <stop stop-color="#FAA662"/>
    <stop offset="1" stop-color="#9E6226"/>
    </linearGradient>
    </defs>
    </svg>
    