<svg width="91" height="90" viewBox="0 0 91 90" fill="none" xmlns="http://www.w3.org/2000/svg">
    <path d="M10.5545 8.12586L8.12685 10.5535L10.9942 13.4209L13.4219 10.9932L10.5545 8.12586Z" fill="#6E6E6E"/>
    <path d="M5.56725 3.99687L3.99924 5.56488L6.55698 8.12262L8.125 6.55461L5.56725 3.99687Z" fill="#6E6E6E"/>
    <path d="M13.1777 3.31784L9.47475 7.02084L10.3005 7.84656L14.0035 4.14356L13.1777 3.31784Z" fill="#6E6E6E"/>
    <g style="mix-blend-mode:screen">
    <path d="M15.4011 28.1842C12.6977 25.4808 11.4919 22.6355 11.9558 19.9401C9.81032 23.2313 10.4222 26.7006 13.4735 29.7539L67.8374 84.1178C68.9812 85.2615 70.7308 83.5119 69.585 82.3682C68.9252 81.7083 15.4011 28.1842 15.4011 28.1842V28.1842Z" fill="#4F4F4F"/>
    </g>
    <path d="M89.2927 77.1454L77.1454 89.2927C76.6375 89.8006 75.9296 90.0565 75.2138 89.9905L70.4029 89.5446L89.5466 70.4009L89.9925 75.2118C90.0585 75.9277 89.8026 76.6355 89.2947 77.1434L89.2927 77.1454Z" fill="#DCC5E8"/>
    <path d="M16.8647 9.80633L9.80631 16.8648C9.28443 17.3866 9.28443 18.2305 9.80631 18.7523L10.9521 19.8981L19.8981 10.9521L18.7523 9.80633C18.2304 9.28445 17.3866 9.28445 16.8647 9.80633V9.80633Z" fill="#E6E6E6"/>
    <path d="M14.7412 9.67636L9.67636 14.7412C9.15447 15.2631 9.15447 16.1069 9.67636 16.6288L9.86032 16.8128L16.8128 9.86032L16.6288 9.67636C16.1069 9.15447 15.2631 9.15447 14.7412 9.67636V9.67636Z" fill="#B3B3B3"/>
    <path d="M9.04449 1.92407L1.92407 9.04449C1.72612 9.24245 1.40419 9.24245 1.20623 9.04449L0.148467 7.98872C-0.049489 7.79077 -0.049489 7.46884 0.148467 7.27088L7.26888 0.148467C7.46684 -0.049489 7.78877 -0.049489 7.98672 0.148467L9.04249 1.20423C9.24045 1.40219 9.24045 1.72412 9.04249 1.92207L9.04449 1.92407Z" fill="#C2C2C2"/>
    <path d="M5.47748 1.94017L1.94273 5.47492C1.80139 5.61626 1.80139 5.84541 1.94273 5.98675L3.20534 7.24936C3.34668 7.3907 3.57583 7.3907 3.71717 7.24936L7.25192 3.71461C7.39326 3.57328 7.39326 3.34412 7.25192 3.20278L5.98931 1.94017C5.84797 1.79883 5.61882 1.79883 5.47748 1.94017Z" fill="#E6E6E6"/>
    <path d="M8.24057 5.4496L5.44953 8.24064C5.27071 8.41946 5.27071 8.70939 5.44953 8.88821L8.43286 11.8715C8.61168 12.0504 8.9016 12.0504 9.08042 11.8715L11.8715 9.0805C12.0503 8.90168 12.0503 8.61175 11.8715 8.43293L8.88813 5.4496C8.70931 5.27078 8.41939 5.27078 8.24057 5.4496Z" fill="#B3B3B3"/>
    <path d="M12.5776 1.10883L11.9272 1.75923C11.7508 1.9357 11.7508 2.22183 11.9272 2.39831L14.919 5.39012C15.0955 5.5666 15.3817 5.5666 15.5581 5.39012L16.2085 4.73972C16.385 4.56325 16.385 4.27712 16.2085 4.10064L13.2167 1.10883C13.0402 0.932354 12.7541 0.932353 12.5776 1.10883Z" fill="#C2C2C2"/>
    <path d="M12.6588 2.53039L13.3502 1.839C13.5156 1.67357 13.7843 1.67357 13.9497 1.839L15.4838 3.37308C15.6492 3.5385 15.6492 3.80714 15.4838 3.97257L14.7924 4.66397C14.6269 4.82939 14.3583 4.82939 14.1929 4.66397L12.6588 3.12989C12.4934 2.96446 12.4934 2.69582 12.6588 2.53039Z" fill="#E6E6E6"/>
    <g style="mix-blend-mode:multiply">
    <path d="M19.9021 10.9501L19.8981 10.9541L18.7523 9.80831C18.2305 9.28643 17.3866 9.28643 16.8648 9.80831L16.8108 9.8623L16.6268 9.67834C16.1049 9.15646 15.2611 9.15646 14.7392 9.67834L12.4937 11.9238C13.0156 11.402 13.8594 11.402 14.3813 11.9238L14.5653 12.1078L14.6193 12.0538C15.1411 11.5319 15.985 11.5319 16.5068 12.0538L17.6526 13.1996L17.6566 13.1956C20.47 10.3822 25.0329 10.3822 27.8463 13.1956L87.2991 72.6463L87.745 77.4573C87.811 78.1731 87.555 78.881 87.0472 79.3888L89.2927 77.1433C89.8005 76.6355 90.0565 75.9276 89.9905 75.2118L89.5446 70.4008L30.0938 10.9501C27.2804 8.13668 22.7175 8.13668 19.9041 10.9501H19.9021Z" fill="#CCD5D9"/>
    </g>
    </svg>
    