<svg width="800" height="30" viewBox="0 0 800 30" fill="none" xmlns="http://www.w3.org/2000/svg">
    <path d="M769.122 2.41858H753.677H738.232H722.788H707.343H691.909H676.465H661.02H645.576H630.131H614.697H599.253H583.808H568.364H552.93H537.485H522.041H506.596H491.151H475.717H460.273H444.828H429.384H413.939H398.505H383.061H367.616H352.172H336.727H321.293H305.849H290.404H274.96H259.515H244.081H228.636H213.192H197.747H182.313H166.869H151.424H135.98H120.535H105.101H89.6567H74.2122H58.7676H43.323H27.8891H12.4446H-3V-1.52588e-05H12.4446H27.8891H43.323H58.7676H74.2122H89.6567H105.101H120.535H135.98H151.424H166.869H182.313H197.747H213.192H228.636H244.081H259.515H274.96H290.404H305.849H321.293H336.727H352.172H367.616H383.061H398.505H413.939H429.384H444.828H460.273H475.717H491.151H506.596H522.041H537.485H552.93H568.364H583.808H599.253H614.697H630.131H645.576H661.02H676.465H691.909H707.343H722.788H738.232H753.677H769.122H784.555H800V2.41858H784.555H769.122Z" fill="white"/>
    <path d="M784.555 30H769.122H753.677H738.232H722.788H707.343H691.909H676.465H661.02H645.576H630.131H614.697H599.253H583.808H568.364H552.93H537.485H522.041H506.596H491.151H475.717H460.273H444.828H429.384H413.939H398.505H383.061H367.616H352.172H336.727H321.293H305.849H290.404H274.96H259.515H244.081H228.636H213.192H197.747H182.313H166.869H151.424H135.98H120.535H105.101H89.6567H74.2122H58.7676H43.323H27.8891H12.4446H-3V27.5814H12.4446H27.8891H43.323H58.7676H74.2122H89.6567H105.101H120.535H135.98H151.424H166.869H182.313H197.747H213.192H228.636H244.081H259.515H274.96H290.404H305.849H321.293H336.727H352.172H367.616H383.061H398.505H413.939H429.384H444.828H460.273H475.717H491.151H506.596H522.041H537.485H552.93H568.364H583.808H599.253H614.697H630.131H645.576H661.02H676.465H691.909H707.343H722.788H738.232H753.677H769.122H784.555H800V30H784.555Z" fill="white"/>
    <path d="M12.4446 14.9966H-3V5.27511H12.4446V14.9966Z" fill="#303030"/>
    <path d="M27.8892 14.9966H12.4446V5.27511H27.8892V14.9966Z" fill="white"/>
    <path d="M43.3337 14.9966H27.8891V5.27511H43.3337V14.9966Z" fill="#303030"/>
    <path d="M58.7676 14.9966H43.323V5.27511H58.7676V14.9966Z" fill="white"/>
    <path d="M74.2121 14.9966H58.7676V5.27511H74.2121V14.9966Z" fill="#303030"/>
    <path d="M89.6567 14.9966H74.2122V5.27511H89.6567V14.9966Z" fill="white"/>
    <path d="M105.101 14.9966H89.6567V5.27511H105.101V14.9966Z" fill="#303030"/>
    <path d="M120.546 14.9966H105.101V5.27511H120.546V14.9966Z" fill="white"/>
    <path d="M135.98 14.9966H120.535V5.27511H135.98V14.9966Z" fill="#303030"/>
    <path d="M151.424 14.9966H135.98V5.27511H151.424V14.9966Z" fill="white"/>
    <path d="M166.869 14.9966H151.424V5.27511H166.869V14.9966Z" fill="#303030"/>
    <path d="M182.313 14.9966H166.869V5.27511H182.313V14.9966Z" fill="white"/>
    <path d="M197.758 14.9966H182.313V5.27511H197.758V14.9966Z" fill="#303030"/>
    <path d="M213.192 14.9966H197.747V5.27511H213.192V14.9966Z" fill="white"/>
    <path d="M228.636 14.9966H213.192V5.27511H228.636V14.9966Z" fill="#303030"/>
    <path d="M244.081 14.9966H228.636V5.27511H244.081V14.9966Z" fill="white"/>
    <path d="M259.526 14.9966H244.081V5.27511H259.526V14.9966Z" fill="#303030"/>
    <path d="M274.96 14.9966H259.515V5.27511H274.96V14.9966Z" fill="white"/>
    <path d="M290.404 14.9966H274.959V5.27511H290.404V14.9966Z" fill="#303030"/>
    <path d="M305.849 14.9966H290.404V5.27511H305.849V14.9966Z" fill="white"/>
    <path d="M321.293 14.9966H305.849V5.27511H321.293V14.9966Z" fill="#303030"/>
    <path d="M336.738 14.9966H321.293V5.27511H336.738V14.9966Z" fill="white"/>
    <path d="M352.172 14.9966H336.727V5.27511H352.172V14.9966Z" fill="#303030"/>
    <path d="M367.616 14.9966H352.172V5.27511H367.616V14.9966Z" fill="white"/>
    <path d="M383.061 14.9966H367.616V5.27511H383.061V14.9966Z" fill="#303030"/>
    <path d="M398.505 14.9966H383.061V5.27511H398.505V14.9966Z" fill="white"/>
    <path d="M12.4446 24.7182H-3V14.9966H12.4446V24.7182Z" fill="white"/>
    <path d="M27.8892 24.7182H12.4446V14.9966H27.8892V24.7182Z" fill="#303030"/>
    <path d="M43.3337 24.7182H27.8891V14.9966H43.3337V24.7182Z" fill="white"/>
    <path d="M58.7676 24.7182H43.323V14.9966H58.7676V24.7182Z" fill="#303030"/>
    <path d="M74.2121 24.7182H58.7676V14.9966H74.2121V24.7182Z" fill="white"/>
    <path d="M89.6567 24.7182H74.2122V14.9966H89.6567V24.7182Z" fill="#303030"/>
    <path d="M105.101 24.7182H89.6567V14.9966H105.101V24.7182Z" fill="white"/>
    <path d="M120.546 24.7182H105.101V14.9966H120.546V24.7182Z" fill="#303030"/>
    <path d="M135.98 24.7182H120.535V14.9966H135.98V24.7182Z" fill="white"/>
    <path d="M151.424 24.7182H135.98V14.9966H151.424V24.7182Z" fill="#303030"/>
    <path d="M166.869 24.7182H151.424V14.9966H166.869V24.7182Z" fill="white"/>
    <path d="M182.313 24.7182H166.869V14.9966H182.313V24.7182Z" fill="#303030"/>
    <path d="M197.758 24.7182H182.313V14.9966H197.758V24.7182Z" fill="white"/>
    <path d="M213.192 24.7182H197.747V14.9966H213.192V24.7182Z" fill="#303030"/>
    <path d="M228.636 24.7182H213.192V14.9966H228.636V24.7182Z" fill="white"/>
    <path d="M244.081 24.7182H228.636V14.9966H244.081V24.7182Z" fill="#303030"/>
    <path d="M259.526 24.7182H244.081V14.9966H259.526V24.7182Z" fill="white"/>
    <path d="M274.96 24.7182H259.515V14.9966H274.96V24.7182Z" fill="#303030"/>
    <path d="M290.404 24.7182H274.959V14.9966H290.404V24.7182Z" fill="white"/>
    <path d="M305.849 24.7182H290.404V14.9966H305.849V24.7182Z" fill="#303030"/>
    <path d="M321.293 24.7182H305.849V14.9966H321.293V24.7182Z" fill="white"/>
    <path d="M336.738 24.7182H321.293V14.9966H336.738V24.7182Z" fill="#303030"/>
    <path d="M352.172 24.7182H336.727V14.9966H352.172V24.7182Z" fill="white"/>
    <path d="M367.616 24.7182H352.172V14.9966H367.616V24.7182Z" fill="#303030"/>
    <path d="M383.061 24.7182H367.616V14.9966H383.061V24.7182Z" fill="white"/>
    <path d="M398.505 24.7182H383.061V14.9966H398.505V24.7182Z" fill="#303030"/>
    <path d="M413.95 14.9966H398.505V5.27511H413.95V14.9966Z" fill="#303030"/>
    <path d="M429.384 14.9966H413.939V5.27511H429.384V14.9966Z" fill="white"/>
    <path d="M444.828 14.9966H429.384V5.27511H444.828V14.9966Z" fill="#303030"/>
    <path d="M460.273 14.9966H444.828V5.27511H460.273V14.9966Z" fill="white"/>
    <path d="M475.717 14.9966H460.273V5.27511H475.717V14.9966Z" fill="#303030"/>
    <path d="M491.162 14.9966H475.718V5.27511H491.162V14.9966Z" fill="white"/>
    <path d="M506.596 14.9966H491.151V5.27511H506.596V14.9966Z" fill="#303030"/>
    <path d="M522.041 14.9966H506.596V5.27511H522.041V14.9966Z" fill="white"/>
    <path d="M537.485 14.9966H522.04V5.27511H537.485V14.9966Z" fill="#303030"/>
    <path d="M552.93 14.9966H537.485V5.27511H552.93V14.9966Z" fill="white"/>
    <path d="M568.374 14.9966H552.93V5.27511H568.374V14.9966Z" fill="#303030"/>
    <path d="M583.808 14.9966H568.364V5.27511H583.808V14.9966Z" fill="white"/>
    <path d="M599.253 14.9966H583.808V5.27511H599.253V14.9966Z" fill="#303030"/>
    <path d="M614.697 14.9966H599.253V5.27511H614.697V14.9966Z" fill="white"/>
    <path d="M630.142 14.9966H614.697V5.27511H630.142V14.9966Z" fill="#303030"/>
    <path d="M645.576 14.9966H630.131V5.27511H645.576V14.9966Z" fill="white"/>
    <path d="M661.02 14.9966H645.576V5.27511H661.02V14.9966Z" fill="#303030"/>
    <path d="M676.465 14.9966H661.02V5.27511H676.465V14.9966Z" fill="white"/>
    <path d="M691.909 14.9966H676.465V5.27511H691.909V14.9966Z" fill="#303030"/>
    <path d="M707.354 14.9966H691.909V5.27511H707.354V14.9966Z" fill="white"/>
    <path d="M722.788 14.9966H707.343V5.27511H722.788V14.9966Z" fill="#303030"/>
    <path d="M738.232 14.9966H722.788V5.27511H738.232V14.9966Z" fill="white"/>
    <path d="M753.677 14.9966H738.232V5.27511H753.677V14.9966Z" fill="#303030"/>
    <path d="M769.122 14.9966H753.677V5.27511H769.122V14.9966Z" fill="white"/>
    <path d="M784.566 14.9966H769.122V5.27511H784.566V14.9966Z" fill="#303030"/>
    <path d="M800 14.9966H784.555V5.27511H800V14.9966Z" fill="white"/>
    <path d="M413.95 24.7182H398.505V14.9966H413.95V24.7182Z" fill="white"/>
    <path d="M429.384 24.7182H413.939V14.9966H429.384V24.7182Z" fill="#303030"/>
    <path d="M444.828 24.7182H429.384V14.9966H444.828V24.7182Z" fill="white"/>
    <path d="M460.273 24.7182H444.828V14.9966H460.273V24.7182Z" fill="#303030"/>
    <path d="M475.717 24.7182H460.273V14.9966H475.717V24.7182Z" fill="white"/>
    <path d="M491.162 24.7182H475.718V14.9966H491.162V24.7182Z" fill="#303030"/>
    <path d="M506.596 24.7182H491.151V14.9966H506.596V24.7182Z" fill="white"/>
    <path d="M522.041 24.7182H506.596V14.9966H522.041V24.7182Z" fill="#303030"/>
    <path d="M537.485 24.7182H522.04V14.9966H537.485V24.7182Z" fill="white"/>
    <path d="M552.93 24.7182H537.485V14.9966H552.93V24.7182Z" fill="#303030"/>
    <path d="M568.374 24.7182H552.93V14.9966H568.374V24.7182Z" fill="white"/>
    <path d="M583.808 24.7182H568.364V14.9966H583.808V24.7182Z" fill="#303030"/>
    <path d="M599.253 24.7182H583.808V14.9966H599.253V24.7182Z" fill="white"/>
    <path d="M614.697 24.7182H599.253V14.9966H614.697V24.7182Z" fill="#303030"/>
    <path d="M630.142 24.7182H614.697V14.9966H630.142V24.7182Z" fill="white"/>
    <path d="M645.576 24.7182H630.131V14.9966H645.576V24.7182Z" fill="#303030"/>
    <path d="M661.02 24.7182H645.576V14.9966H661.02V24.7182Z" fill="white"/>
    <path d="M676.465 24.7182H661.02V14.9966H676.465V24.7182Z" fill="#303030"/>
    <path d="M691.909 24.7182H676.465V14.9966H691.909V24.7182Z" fill="white"/>
    <path d="M707.354 24.7182H691.909V14.9966H707.354V24.7182Z" fill="#303030"/>
    <path d="M722.788 24.7182H707.343V14.9966H722.788V24.7182Z" fill="white"/>
    <path d="M738.232 24.7182H722.788V14.9966H738.232V24.7182Z" fill="#303030"/>
    <path d="M753.677 24.7182H738.232V14.9966H753.677V24.7182Z" fill="white"/>
    <path d="M769.122 24.7182H753.677V14.9966H769.122V24.7182Z" fill="#303030"/>
    <path d="M784.566 24.7182H769.122V14.9966H784.566V24.7182Z" fill="white"/>
    <path d="M800 24.7182H784.555V14.9966H800V24.7182Z" fill="#303030"/>
    </svg>
    