<svg width="91" height="90" viewBox="0 0 91 90" fill="none" xmlns="http://www.w3.org/2000/svg">
    <path d="M10.5545 8.12587L8.12683 10.5535L10.9942 13.4209L13.4219 10.9933L10.5545 8.12587Z" fill="#6E6E6E"/>
    <path d="M5.56722 3.99686L3.99921 5.56487L6.55695 8.12262L8.12496 6.5546L5.56722 3.99686Z" fill="#6E6E6E"/>
    <path d="M13.1777 3.31783L9.47473 7.02083L10.3004 7.84655L14.0035 4.14355L13.1777 3.31783Z" fill="#6E6E6E"/>
    <path d="M89.5446 70.4009L70.4008 89.5446L10.9501 30.0938C8.13668 27.2804 8.13668 22.7175 10.9501 19.9041L19.9021 10.9521C22.7154 8.13869 27.2784 8.13869 30.0918 10.9521L89.5446 70.4009Z" fill="#24A6EE"/>
    <path d="M53.1027 38.314H39.9576C39.3668 38.314 38.8878 38.7929 38.8878 39.3837V52.5288C38.8878 53.1196 39.3668 53.5986 39.9576 53.5986H53.1027C53.6935 53.5986 54.1724 53.1196 54.1724 52.5288V39.3837C54.1724 38.7929 53.6935 38.314 53.1027 38.314Z" fill="#FFD321"/>
    <path d="M54.2604 53.6866C54.0085 53.9385 53.6726 54.0785 53.3146 54.0785H39.7436C39.0058 54.0785 38.4059 53.4786 38.4059 52.7408V39.1698C38.4059 38.8119 38.5459 38.476 38.7979 38.224C39.0498 37.9721 39.3857 37.8321 39.7436 37.8321H53.3146C53.6726 37.8321 54.0085 37.9721 54.2604 38.224C54.5124 38.476 54.6523 38.8119 54.6523 39.1698V52.7408C54.6523 53.0987 54.5124 53.4346 54.2604 53.6866ZM39.5357 38.9618C39.4797 39.0178 39.4497 39.0918 39.4497 39.1698V52.7408C39.4497 52.9027 39.5817 53.0347 39.7436 53.0347H53.3146C53.4706 53.0347 53.6086 52.8987 53.6086 52.7408V39.1698C53.6086 39.0918 53.5786 39.0178 53.5226 38.9618C53.4666 38.9059 53.3926 38.8759 53.3146 38.8759H39.7436C39.6657 38.8759 39.5917 38.9059 39.5357 38.9618Z" fill="#473434"/>
    <path d="M49.2515 49.8554C46.918 50.6552 45.3604 48.7697 44.8625 47.7099C44.3386 46.5921 44.2806 45.7523 44.2806 45.7523C44.7945 46.2462 45.2824 46.2442 45.2824 46.2442C44.2806 45.0885 44.8625 43.9367 43.0149 42.787C44.6945 42.2951 47.242 42.905 49.0635 44.6986C51.2171 46.8221 49.9913 49.0776 50.0173 49.1536C49.3195 49.0496 48.7816 47.8759 48.3537 48.1998C47.9258 48.5237 48.3917 49.4275 49.2535 49.8534L49.2515 49.8554Z" fill="#473434"/>
    <g style="mix-blend-mode:screen">
    <path d="M15.4011 28.1842C12.6977 25.4808 11.4919 22.6355 11.9558 19.9401C9.81032 23.2313 10.4222 26.7006 13.4735 29.7539L67.8374 84.1178C68.9812 85.2615 70.7308 83.5119 69.585 82.3682C68.9252 81.7083 15.4011 28.1842 15.4011 28.1842Z" fill="#4F4F4F"/>
    </g>
    <path d="M89.2926 77.1454L77.1453 89.2927C76.6374 89.8005 75.9296 90.0565 75.2138 89.9905L70.4028 89.5446L89.5466 70.4009L89.9925 75.2118C90.0585 75.9276 89.8025 76.6355 89.2946 77.1434L89.2926 77.1454Z" fill="#DCC5E8"/>
    <path d="M16.8648 9.80632L9.80633 16.8648C9.28445 17.3866 9.28445 18.2304 9.80633 18.7523L10.9521 19.8981L19.8981 10.9521L18.7523 9.80632C18.2305 9.28444 17.3866 9.28444 16.8648 9.80632Z" fill="#E6E6E6"/>
    <path d="M14.7412 9.67635L9.67633 14.7412C9.15444 15.2631 9.15444 16.1069 9.67633 16.6288L9.86028 16.8128L16.8127 9.86031L16.6288 9.67635C16.1069 9.15446 15.2631 9.15446 14.7412 9.67635Z" fill="#B3B3B3"/>
    <path d="M9.04449 1.92407L1.92407 9.04449C1.72612 9.24245 1.40419 9.24245 1.20623 9.04449L0.148467 7.98872C-0.049489 7.79077 -0.049489 7.46884 0.148467 7.27088L7.26888 0.148467C7.46684 -0.049489 7.78877 -0.049489 7.98672 0.148467L9.04249 1.20423C9.24045 1.40219 9.24045 1.72412 9.04249 1.92207L9.04449 1.92407Z" fill="#C2C2C2"/>
    <path d="M5.47749 1.94017L1.94274 5.47492C1.80141 5.61626 1.80141 5.84542 1.94274 5.98675L3.20536 7.24937C3.3467 7.39071 3.57585 7.39071 3.71719 7.24937L7.25194 3.71462C7.39327 3.57328 7.39327 3.34413 7.25194 3.20279L5.98932 1.94018C5.84799 1.79884 5.61883 1.79884 5.47749 1.94017Z" fill="#E6E6E6"/>
    <path d="M8.24055 5.44961L5.44952 8.24065C5.27069 8.41947 5.27069 8.70939 5.44952 8.88821L8.43284 11.8715C8.61166 12.0504 8.90159 12.0504 9.08041 11.8715L11.8714 9.0805C12.0503 8.90168 12.0503 8.61176 11.8714 8.43294L8.88812 5.44961C8.7093 5.27079 8.41937 5.27079 8.24055 5.44961Z" fill="#B3B3B3"/>
    <path d="M12.5776 1.10882L11.9272 1.75922C11.7507 1.9357 11.7507 2.22182 11.9272 2.3983L14.919 5.39011C15.0955 5.56659 15.3816 5.56659 15.5581 5.39011L16.2085 4.73972C16.385 4.56324 16.385 4.27711 16.2085 4.10064L13.2167 1.10882C13.0402 0.932346 12.7541 0.932345 12.5776 1.10882Z" fill="#C2C2C2"/>
    <path d="M12.6588 2.53038L13.3502 1.83898C13.5156 1.67356 13.7843 1.67355 13.9497 1.83898L15.4838 3.37306C15.6492 3.53849 15.6492 3.80713 15.4838 3.97256L14.7924 4.66395C14.627 4.82938 14.3583 4.82938 14.1929 4.66395L12.6588 3.12987C12.4934 2.96444 12.4934 2.6958 12.6588 2.53038Z" fill="#E6E6E6"/>
    <g style="mix-blend-mode:multiply">
    <path d="M19.9021 10.9501L19.8981 10.9541L18.7523 9.80832C18.2304 9.28644 17.3866 9.28644 16.8647 9.80832L16.8108 9.86231L16.6268 9.67835C16.1049 9.15646 15.2611 9.15646 14.7392 9.67835L12.4937 11.9238C13.0156 11.402 13.8594 11.402 14.3813 11.9238L14.5653 12.1078L14.6192 12.0538C15.1411 11.5319 15.9849 11.5319 16.5068 12.0538L17.6526 13.1996L17.6566 13.1956C20.4699 10.3822 25.0329 10.3822 27.8463 13.1956L87.2991 72.6464L87.745 77.4573C87.811 78.1731 87.555 78.881 87.0471 79.3889L89.2926 77.1433C89.8005 76.6355 90.0565 75.9276 89.9905 75.2118L89.5446 70.4008L30.0938 10.9501C27.2804 8.13669 22.7174 8.13669 19.9041 10.9501H19.9021Z" fill="#CCD5D9"/>
    </g>
    </svg>
    