<svg width="46" height="46" viewBox="0 0 46 46" fill="none" xmlns="http://www.w3.org/2000/svg">
    <g filter="url(#filter0_di_0_1)">
    <circle cx="23" cy="19" r="19" fill="url(#paint0_linear_0_1)"/>
    </g>
    <path d="M20.3885 26.0764V23.1322C20.3885 22.3806 21.0022 21.7713 21.7593 21.7713H24.5267C24.8903 21.7713 25.239 21.9147 25.4961 22.1699C25.7531 22.4251 25.8976 22.7713 25.8976 23.1322V26.0764C25.8953 26.3889 26.0187 26.6893 26.2404 26.9111C26.4622 27.1328 26.7639 27.2575 27.0787 27.2575H28.9668C29.8486 27.2598 30.6951 26.9136 31.3194 26.2954C31.9438 25.6772 32.2946 24.8378 32.2946 23.9624V15.5748C32.2946 14.8677 31.9789 14.1969 31.4325 13.7432L25.0095 8.65078C23.8923 7.7579 22.2914 7.78672 21.2075 8.71925L14.9311 13.7432C14.3589 14.1835 14.0169 14.8563 14 15.5748V23.9538C14 25.7784 15.4899 27.2575 17.3279 27.2575H19.1728C19.8266 27.2575 20.3579 26.7339 20.3626 26.085L20.3885 26.0764Z" fill="white"/>
    <defs>
    <filter id="filter0_di_0_1" x="0" y="0" width="46" height="46" filterUnits="userSpaceOnUse" color-interpolation-filters="sRGB">
    <feFlood flood-opacity="0" result="BackgroundImageFix"/>
    <feColorMatrix in="SourceAlpha" type="matrix" values="0 0 0 0 0 0 0 0 0 0 0 0 0 0 0 0 0 0 127 0" result="hardAlpha"/>
    <feOffset dy="4"/>
    <feGaussianBlur stdDeviation="2"/>
    <feComposite in2="hardAlpha" operator="out"/>
    <feColorMatrix type="matrix" values="0 0 0 0 0.110903 0 0 0 0 0.0551389 0 0 0 0 0.166667 0 0 0 0.34 0"/>
    <feBlend mode="normal" in2="BackgroundImageFix" result="effect1_dropShadow_0_1"/>
    <feBlend mode="normal" in="SourceGraphic" in2="effect1_dropShadow_0_1" result="shape"/>
    <feColorMatrix in="SourceAlpha" type="matrix" values="0 0 0 0 0 0 0 0 0 0 0 0 0 0 0 0 0 0 127 0" result="hardAlpha"/>
    <feOffset dy="2"/>
    <feComposite in2="hardAlpha" operator="arithmetic" k2="-1" k3="1"/>
    <feColorMatrix type="matrix" values="0 0 0 0 1 0 0 0 0 1 0 0 0 0 1 0 0 0 0.09 0"/>
    <feBlend mode="normal" in2="shape" result="effect2_innerShadow_0_1"/>
    </filter>
    <linearGradient id="paint0_linear_0_1" x1="16.4656" y1="41.8" x2="30.3153" y2="39.8015" gradientUnits="userSpaceOnUse">
    <stop stop-color="#6838F1"/>
    <stop offset="1" stop-color="#7558F4"/>
    </linearGradient>
    </defs>
    </svg>
    